%TF.GenerationSoftware,KiCad,Pcbnew,(7.0.0)*%
%TF.CreationDate,2023-07-30T22:41:47-07:00*%
%TF.ProjectId,macropad-V3,6d616372-6f70-4616-942d-56332e6b6963,rev?*%
%TF.SameCoordinates,Original*%
%TF.FileFunction,Copper,L1,Top*%
%TF.FilePolarity,Positive*%
%FSLAX46Y46*%
G04 Gerber Fmt 4.6, Leading zero omitted, Abs format (unit mm)*
G04 Created by KiCad (PCBNEW (7.0.0)) date 2023-07-30 22:41:47*
%MOMM*%
%LPD*%
G01*
G04 APERTURE LIST*
%TA.AperFunction,ComponentPad*%
%ADD10C,2.200000*%
%TD*%
%TA.AperFunction,ComponentPad*%
%ADD11C,2.000000*%
%TD*%
%TA.AperFunction,ComponentPad*%
%ADD12R,1.752600X1.752600*%
%TD*%
%TA.AperFunction,ComponentPad*%
%ADD13C,1.752600*%
%TD*%
%TA.AperFunction,ComponentPad*%
%ADD14R,1.700000X1.700000*%
%TD*%
%TA.AperFunction,ComponentPad*%
%ADD15O,1.700000X1.700000*%
%TD*%
%TA.AperFunction,ComponentPad*%
%ADD16R,1.800000X1.800000*%
%TD*%
%TA.AperFunction,ComponentPad*%
%ADD17C,1.800000*%
%TD*%
%TA.AperFunction,ComponentPad*%
%ADD18C,2.550000*%
%TD*%
%TA.AperFunction,ViaPad*%
%ADD19C,0.800000*%
%TD*%
%TA.AperFunction,Conductor*%
%ADD20C,0.381000*%
%TD*%
G04 APERTURE END LIST*
D10*
%TO.P,MX7,1,1*%
%TO.N,KEY6*%
X196088000Y-67818000D03*
%TO.P,MX7,2,2*%
%TO.N,GND*%
X189738000Y-70358000D03*
%TD*%
%TO.P,MX2,1,1*%
%TO.N,KEY1*%
X87757000Y-86868000D03*
%TO.P,MX2,2,2*%
%TO.N,GND*%
X81407000Y-89408000D03*
%TD*%
D11*
%TO.P,SW1,1,1*%
%TO.N,GND*%
X153670000Y-54102000D03*
X160170000Y-54102000D03*
%TO.P,SW1,2,2*%
%TO.N,Net-(U1-RST)*%
X153670000Y-58602000D03*
X160170000Y-58602000D03*
%TD*%
D10*
%TO.P,MX6,1,1*%
%TO.N,KEY5*%
X177038000Y-86868000D03*
%TO.P,MX6,2,2*%
%TO.N,GND*%
X170688000Y-89408000D03*
%TD*%
%TO.P,MX4,1,1*%
%TO.N,KEY3*%
X106807000Y-86868000D03*
%TO.P,MX4,2,2*%
%TO.N,GND*%
X100457000Y-89408000D03*
%TD*%
%TO.P,MX5,1,1*%
%TO.N,KEY4*%
X177038000Y-67818000D03*
%TO.P,MX5,2,2*%
%TO.N,GND*%
X170688000Y-70358000D03*
%TD*%
D12*
%TO.P,U1,1,TX*%
%TO.N,unconnected-(U1-TX-Pad1)*%
X132333999Y-53720999D03*
D13*
%TO.P,U1,2,RX*%
%TO.N,unconnected-(U1-RX-Pad2)*%
X132334000Y-56261000D03*
%TO.P,U1,3,GND*%
%TO.N,GND*%
X132334000Y-58801000D03*
%TO.P,U1,4,GND*%
X132334000Y-61341000D03*
%TO.P,U1,5,2*%
%TO.N,SDA*%
X132334000Y-63881000D03*
%TO.P,U1,6,3*%
%TO.N,SCL*%
X132334000Y-66421000D03*
%TO.P,U1,7,4*%
%TO.N,KEY0*%
X132334000Y-68961000D03*
%TO.P,U1,8,5*%
%TO.N,KEY1*%
X132334000Y-71501000D03*
%TO.P,U1,9,6*%
%TO.N,KEY2*%
X132334000Y-74041000D03*
%TO.P,U1,10,7*%
%TO.N,KEY3*%
X132334000Y-76581000D03*
%TO.P,U1,11,8*%
%TO.N,unconnected-(U1-8-Pad11)*%
X132334000Y-79121000D03*
%TO.P,U1,12,9*%
%TO.N,unconnected-(U1-9-Pad12)*%
X132334000Y-81661000D03*
%TO.P,U1,13,10*%
%TO.N,KEY5*%
X147574000Y-81661000D03*
%TO.P,U1,14,16*%
%TO.N,KEY7*%
X147574000Y-79121000D03*
%TO.P,U1,15,14*%
%TO.N,KEY6*%
X147574000Y-76581000D03*
%TO.P,U1,16,15*%
%TO.N,KEY4*%
X147574000Y-74041000D03*
%TO.P,U1,17,A0*%
%TO.N,ADC0*%
X147574000Y-71501000D03*
%TO.P,U1,18,A1*%
%TO.N,unconnected-(U1-A1-Pad18)*%
X147574000Y-68961000D03*
%TO.P,U1,19,A2*%
%TO.N,unconnected-(U1-A2-Pad19)*%
X147574000Y-66421000D03*
%TO.P,U1,20,A3*%
%TO.N,unconnected-(U1-A3-Pad20)*%
X147574000Y-63881000D03*
%TO.P,U1,21,VCC*%
%TO.N,VCC*%
X147574000Y-61341000D03*
%TO.P,U1,22,RST*%
%TO.N,Net-(U1-RST)*%
X147574000Y-58801000D03*
%TO.P,U1,23,GND*%
%TO.N,GND*%
X147574000Y-56261000D03*
%TO.P,U1,24,RAW*%
%TO.N,unconnected-(U1-RAW-Pad24)*%
X147574000Y-53721000D03*
%TD*%
D10*
%TO.P,MX8,1,1*%
%TO.N,KEY7*%
X196088000Y-86868000D03*
%TO.P,MX8,2,2*%
%TO.N,GND*%
X189738000Y-89408000D03*
%TD*%
D14*
%TO.P,128x32oLed1,1,Pin_1*%
%TO.N,GND*%
X143902999Y-87337999D03*
D15*
%TO.P,128x32oLed1,2,Pin_2*%
%TO.N,VCC*%
X141362999Y-87337999D03*
%TO.P,128x32oLed1,3,Pin_3*%
%TO.N,SCL*%
X138822999Y-87337999D03*
%TO.P,128x32oLed1,4,Pin_4*%
%TO.N,SDA*%
X136282999Y-87337999D03*
%TD*%
D10*
%TO.P,MX1,1,1*%
%TO.N,KEY0*%
X87757000Y-67818000D03*
%TO.P,MX1,2,2*%
%TO.N,GND*%
X81407000Y-70358000D03*
%TD*%
%TO.P,MX3,1,1*%
%TO.N,KEY2*%
X106807000Y-67818000D03*
%TO.P,MX3,2,2*%
%TO.N,GND*%
X100457000Y-70358000D03*
%TD*%
D16*
%TO.P,R1,1*%
%TO.N,VCC*%
X123503499Y-94515999D03*
D17*
%TO.P,R1,2*%
%TO.N,ADC0*%
X123503500Y-98016000D03*
%TO.P,R1,3*%
%TO.N,GND*%
X157003500Y-94516000D03*
D18*
%TO.P,R1,S1*%
%TO.N,N/C*%
X128853500Y-92016000D03*
%TO.P,R1,S2*%
X127653500Y-100516000D03*
%TO.P,R1,S3*%
X151653500Y-92016000D03*
%TO.P,R1,S4*%
X152853500Y-100516000D03*
%TD*%
D19*
%TO.N,GND*%
X123571000Y-63246000D03*
X119634000Y-77851000D03*
X143637000Y-70866000D03*
%TD*%
D20*
%TO.N,GND*%
X123571000Y-73914000D02*
X123571000Y-63246000D01*
X119634000Y-77851000D02*
X123571000Y-73914000D01*
X141859000Y-70866000D02*
X143637000Y-70866000D01*
X144620128Y-87338000D02*
X151798127Y-94516000D01*
X143903000Y-87338000D02*
X144620128Y-87338000D01*
X132334000Y-61341000D02*
X141859000Y-70866000D01*
X151798127Y-94516000D02*
X157003500Y-94516000D01*
%TD*%
M02*
