M48
; DRILL file {KiCad (7.0.0)} date Sun Jul 30 22:41:52 2023
; FORMAT={-:-/ absolute / inch / decimal}
; #@! TF.CreationDate,2023-07-30T22:41:52-07:00
; #@! TF.GenerationSoftware,Kicad,Pcbnew,(7.0.0)
; #@! TF.FileFunction,Plated,1,2,PTH
FMAT,2
INCH
; #@! TA.AperFunction,Plated,PTH,ViaDrill
T1C0.0157
; #@! TA.AperFunction,Plated,PTH,ComponentDrill
T2C0.0394
; #@! TA.AperFunction,Plated,PTH,ComponentDrill
T3C0.0430
; #@! TA.AperFunction,Plated,PTH,ComponentDrill
T4C0.0433
; #@! TA.AperFunction,Plated,PTH,ComponentDrill
T5C0.0472
; #@! TA.AperFunction,Plated,PTH,ComponentDrill
T6C0.0591
; #@! TA.AperFunction,Plated,PTH,ComponentDrill
T7C0.0669
%
G90
G05
T1
X4.71Y-3.065
X4.865Y-2.49
X5.655Y-2.79
T2
X5.3655Y-3.4385
X5.4655Y-3.4385
X5.5655Y-3.4385
X5.6655Y-3.4385
T3
X5.21Y-2.115
X5.21Y-2.215
X5.21Y-2.315
X5.21Y-2.415
X5.21Y-2.515
X5.21Y-2.615
X5.21Y-2.715
X5.21Y-2.815
X5.21Y-2.915
X5.21Y-3.015
X5.21Y-3.115
X5.21Y-3.215
X5.81Y-2.115
X5.81Y-2.215
X5.81Y-2.315
X5.81Y-2.415
X5.81Y-2.515
X5.81Y-2.615
X5.81Y-2.715
X5.81Y-2.815
X5.81Y-2.915
X5.81Y-3.015
X5.81Y-3.115
X5.81Y-3.215
T4
X6.05Y-2.13
X6.05Y-2.3072
X6.3059Y-2.13
X6.3059Y-2.3072
T5
X4.8623Y-3.7211
X4.8623Y-3.8589
X6.1812Y-3.7211
T6
X3.205Y-2.77
X3.205Y-3.52
X3.455Y-2.67
X3.455Y-3.42
X3.955Y-2.77
X3.955Y-3.52
X4.205Y-2.67
X4.205Y-3.42
X6.72Y-2.77
X6.72Y-3.52
X6.97Y-2.67
X6.97Y-3.42
X7.47Y-2.77
X7.47Y-3.52
X7.72Y-2.67
X7.72Y-3.42
T7
X5.0257Y-3.9573
X5.073Y-3.6227
X5.9706Y-3.6227
X6.0179Y-3.9573
T0
M30
