%TF.GenerationSoftware,KiCad,Pcbnew,(7.0.0)*%
%TF.CreationDate,2023-07-30T13:50:14-07:00*%
%TF.ProjectId,macropad-v2,6d616372-6f70-4616-942d-76322e6b6963,rev?*%
%TF.SameCoordinates,Original*%
%TF.FileFunction,Legend,Top*%
%TF.FilePolarity,Positive*%
%FSLAX46Y46*%
G04 Gerber Fmt 4.6, Leading zero omitted, Abs format (unit mm)*
G04 Created by KiCad (PCBNEW (7.0.0)) date 2023-07-30 13:50:14*
%MOMM*%
%LPD*%
G01*
G04 APERTURE LIST*
%ADD10C,0.150000*%
%ADD11C,0.203200*%
%ADD12C,0.120000*%
%ADD13C,0.127000*%
%ADD14C,0.200000*%
%ADD15C,0.381000*%
%ADD16C,0.040000*%
%ADD17R,1.752600X1.752600*%
%ADD18C,1.752600*%
G04 APERTURE END LIST*
D10*
X75183928Y-53233571D02*
X75326785Y-53281190D01*
X75326785Y-53281190D02*
X75374404Y-53328809D01*
X75374404Y-53328809D02*
X75422023Y-53424047D01*
X75422023Y-53424047D02*
X75422023Y-53566904D01*
X75422023Y-53566904D02*
X75374404Y-53662142D01*
X75374404Y-53662142D02*
X75326785Y-53709761D01*
X75326785Y-53709761D02*
X75231547Y-53757380D01*
X75231547Y-53757380D02*
X74850595Y-53757380D01*
X74850595Y-53757380D02*
X74850595Y-52757380D01*
X74850595Y-52757380D02*
X75183928Y-52757380D01*
X75183928Y-52757380D02*
X75279166Y-52805000D01*
X75279166Y-52805000D02*
X75326785Y-52852619D01*
X75326785Y-52852619D02*
X75374404Y-52947857D01*
X75374404Y-52947857D02*
X75374404Y-53043095D01*
X75374404Y-53043095D02*
X75326785Y-53138333D01*
X75326785Y-53138333D02*
X75279166Y-53185952D01*
X75279166Y-53185952D02*
X75183928Y-53233571D01*
X75183928Y-53233571D02*
X74850595Y-53233571D01*
X75850595Y-53757380D02*
X75850595Y-53090714D01*
X75850595Y-52757380D02*
X75802976Y-52805000D01*
X75802976Y-52805000D02*
X75850595Y-52852619D01*
X75850595Y-52852619D02*
X75898214Y-52805000D01*
X75898214Y-52805000D02*
X75850595Y-52757380D01*
X75850595Y-52757380D02*
X75850595Y-52852619D01*
X76564880Y-54090714D02*
X76564880Y-52662142D01*
X77517261Y-54090714D02*
X77517261Y-52662142D01*
X78136309Y-53090714D02*
X78374404Y-53757380D01*
X78612499Y-53090714D02*
X78374404Y-53757380D01*
X78374404Y-53757380D02*
X78279166Y-53995476D01*
X78279166Y-53995476D02*
X78231547Y-54043095D01*
X78231547Y-54043095D02*
X78136309Y-54090714D01*
X79326785Y-53233571D02*
X79469642Y-53281190D01*
X79469642Y-53281190D02*
X79517261Y-53328809D01*
X79517261Y-53328809D02*
X79564880Y-53424047D01*
X79564880Y-53424047D02*
X79564880Y-53566904D01*
X79564880Y-53566904D02*
X79517261Y-53662142D01*
X79517261Y-53662142D02*
X79469642Y-53709761D01*
X79469642Y-53709761D02*
X79374404Y-53757380D01*
X79374404Y-53757380D02*
X78993452Y-53757380D01*
X78993452Y-53757380D02*
X78993452Y-52757380D01*
X78993452Y-52757380D02*
X79326785Y-52757380D01*
X79326785Y-52757380D02*
X79422023Y-52805000D01*
X79422023Y-52805000D02*
X79469642Y-52852619D01*
X79469642Y-52852619D02*
X79517261Y-52947857D01*
X79517261Y-52947857D02*
X79517261Y-53043095D01*
X79517261Y-53043095D02*
X79469642Y-53138333D01*
X79469642Y-53138333D02*
X79422023Y-53185952D01*
X79422023Y-53185952D02*
X79326785Y-53233571D01*
X79326785Y-53233571D02*
X78993452Y-53233571D01*
X80136309Y-53757380D02*
X80041071Y-53709761D01*
X80041071Y-53709761D02*
X79993452Y-53662142D01*
X79993452Y-53662142D02*
X79945833Y-53566904D01*
X79945833Y-53566904D02*
X79945833Y-53281190D01*
X79945833Y-53281190D02*
X79993452Y-53185952D01*
X79993452Y-53185952D02*
X80041071Y-53138333D01*
X80041071Y-53138333D02*
X80136309Y-53090714D01*
X80136309Y-53090714D02*
X80279166Y-53090714D01*
X80279166Y-53090714D02*
X80374404Y-53138333D01*
X80374404Y-53138333D02*
X80422023Y-53185952D01*
X80422023Y-53185952D02*
X80469642Y-53281190D01*
X80469642Y-53281190D02*
X80469642Y-53566904D01*
X80469642Y-53566904D02*
X80422023Y-53662142D01*
X80422023Y-53662142D02*
X80374404Y-53709761D01*
X80374404Y-53709761D02*
X80279166Y-53757380D01*
X80279166Y-53757380D02*
X80136309Y-53757380D01*
X81326785Y-53757380D02*
X81326785Y-53233571D01*
X81326785Y-53233571D02*
X81279166Y-53138333D01*
X81279166Y-53138333D02*
X81183928Y-53090714D01*
X81183928Y-53090714D02*
X80993452Y-53090714D01*
X80993452Y-53090714D02*
X80898214Y-53138333D01*
X81326785Y-53709761D02*
X81231547Y-53757380D01*
X81231547Y-53757380D02*
X80993452Y-53757380D01*
X80993452Y-53757380D02*
X80898214Y-53709761D01*
X80898214Y-53709761D02*
X80850595Y-53614523D01*
X80850595Y-53614523D02*
X80850595Y-53519285D01*
X80850595Y-53519285D02*
X80898214Y-53424047D01*
X80898214Y-53424047D02*
X80993452Y-53376428D01*
X80993452Y-53376428D02*
X81231547Y-53376428D01*
X81231547Y-53376428D02*
X81326785Y-53328809D01*
X81802976Y-53757380D02*
X81802976Y-53090714D01*
X81802976Y-53281190D02*
X81850595Y-53185952D01*
X81850595Y-53185952D02*
X81898214Y-53138333D01*
X81898214Y-53138333D02*
X81993452Y-53090714D01*
X81993452Y-53090714D02*
X82088690Y-53090714D01*
X82850595Y-53757380D02*
X82850595Y-52757380D01*
X82850595Y-53709761D02*
X82755357Y-53757380D01*
X82755357Y-53757380D02*
X82564881Y-53757380D01*
X82564881Y-53757380D02*
X82469643Y-53709761D01*
X82469643Y-53709761D02*
X82422024Y-53662142D01*
X82422024Y-53662142D02*
X82374405Y-53566904D01*
X82374405Y-53566904D02*
X82374405Y-53281190D01*
X82374405Y-53281190D02*
X82422024Y-53185952D01*
X82422024Y-53185952D02*
X82469643Y-53138333D01*
X82469643Y-53138333D02*
X82564881Y-53090714D01*
X82564881Y-53090714D02*
X82755357Y-53090714D01*
X82755357Y-53090714D02*
X82850595Y-53138333D01*
%TO.C,MX7*%
X192262286Y-65391380D02*
X192262286Y-64391380D01*
X192262286Y-64391380D02*
X192595619Y-65105666D01*
X192595619Y-65105666D02*
X192928952Y-64391380D01*
X192928952Y-64391380D02*
X192928952Y-65391380D01*
X193309905Y-64391380D02*
X193976571Y-65391380D01*
X193976571Y-64391380D02*
X193309905Y-65391380D01*
X194262286Y-64391380D02*
X194928952Y-64391380D01*
X194928952Y-64391380D02*
X194500381Y-65391380D01*
%TO.C,D3*%
X154405029Y-89165819D02*
X154405029Y-88165717D01*
X154405029Y-88165717D02*
X154643149Y-88165717D01*
X154643149Y-88165717D02*
X154786020Y-88213341D01*
X154786020Y-88213341D02*
X154881268Y-88308588D01*
X154881268Y-88308588D02*
X154928892Y-88403836D01*
X154928892Y-88403836D02*
X154976516Y-88594332D01*
X154976516Y-88594332D02*
X154976516Y-88737203D01*
X154976516Y-88737203D02*
X154928892Y-88927699D01*
X154928892Y-88927699D02*
X154881268Y-89022947D01*
X154881268Y-89022947D02*
X154786020Y-89118195D01*
X154786020Y-89118195D02*
X154643149Y-89165819D01*
X154643149Y-89165819D02*
X154405029Y-89165819D01*
X155309883Y-88165717D02*
X155928994Y-88165717D01*
X155928994Y-88165717D02*
X155595627Y-88546708D01*
X155595627Y-88546708D02*
X155738498Y-88546708D01*
X155738498Y-88546708D02*
X155833746Y-88594332D01*
X155833746Y-88594332D02*
X155881370Y-88641956D01*
X155881370Y-88641956D02*
X155928994Y-88737203D01*
X155928994Y-88737203D02*
X155928994Y-88975323D01*
X155928994Y-88975323D02*
X155881370Y-89070571D01*
X155881370Y-89070571D02*
X155833746Y-89118195D01*
X155833746Y-89118195D02*
X155738498Y-89165819D01*
X155738498Y-89165819D02*
X155452755Y-89165819D01*
X155452755Y-89165819D02*
X155357507Y-89118195D01*
X155357507Y-89118195D02*
X155309883Y-89070571D01*
%TO.C,MX2*%
X83931286Y-84441380D02*
X83931286Y-83441380D01*
X83931286Y-83441380D02*
X84264619Y-84155666D01*
X84264619Y-84155666D02*
X84597952Y-83441380D01*
X84597952Y-83441380D02*
X84597952Y-84441380D01*
X84978905Y-83441380D02*
X85645571Y-84441380D01*
X85645571Y-83441380D02*
X84978905Y-84441380D01*
X85978905Y-83536619D02*
X86026524Y-83489000D01*
X86026524Y-83489000D02*
X86121762Y-83441380D01*
X86121762Y-83441380D02*
X86359857Y-83441380D01*
X86359857Y-83441380D02*
X86455095Y-83489000D01*
X86455095Y-83489000D02*
X86502714Y-83536619D01*
X86502714Y-83536619D02*
X86550333Y-83631857D01*
X86550333Y-83631857D02*
X86550333Y-83727095D01*
X86550333Y-83727095D02*
X86502714Y-83869952D01*
X86502714Y-83869952D02*
X85931286Y-84441380D01*
X85931286Y-84441380D02*
X86550333Y-84441380D01*
%TO.C,SW1*%
X155586667Y-52421761D02*
X155729524Y-52469380D01*
X155729524Y-52469380D02*
X155967619Y-52469380D01*
X155967619Y-52469380D02*
X156062857Y-52421761D01*
X156062857Y-52421761D02*
X156110476Y-52374142D01*
X156110476Y-52374142D02*
X156158095Y-52278904D01*
X156158095Y-52278904D02*
X156158095Y-52183666D01*
X156158095Y-52183666D02*
X156110476Y-52088428D01*
X156110476Y-52088428D02*
X156062857Y-52040809D01*
X156062857Y-52040809D02*
X155967619Y-51993190D01*
X155967619Y-51993190D02*
X155777143Y-51945571D01*
X155777143Y-51945571D02*
X155681905Y-51897952D01*
X155681905Y-51897952D02*
X155634286Y-51850333D01*
X155634286Y-51850333D02*
X155586667Y-51755095D01*
X155586667Y-51755095D02*
X155586667Y-51659857D01*
X155586667Y-51659857D02*
X155634286Y-51564619D01*
X155634286Y-51564619D02*
X155681905Y-51517000D01*
X155681905Y-51517000D02*
X155777143Y-51469380D01*
X155777143Y-51469380D02*
X156015238Y-51469380D01*
X156015238Y-51469380D02*
X156158095Y-51517000D01*
X156491429Y-51469380D02*
X156729524Y-52469380D01*
X156729524Y-52469380D02*
X156920000Y-51755095D01*
X156920000Y-51755095D02*
X157110476Y-52469380D01*
X157110476Y-52469380D02*
X157348572Y-51469380D01*
X158253333Y-52469380D02*
X157681905Y-52469380D01*
X157967619Y-52469380D02*
X157967619Y-51469380D01*
X157967619Y-51469380D02*
X157872381Y-51612238D01*
X157872381Y-51612238D02*
X157777143Y-51707476D01*
X157777143Y-51707476D02*
X157681905Y-51755095D01*
%TO.C,D6*%
X120165829Y-89165819D02*
X120165829Y-88165717D01*
X120165829Y-88165717D02*
X120403949Y-88165717D01*
X120403949Y-88165717D02*
X120546820Y-88213341D01*
X120546820Y-88213341D02*
X120642068Y-88308588D01*
X120642068Y-88308588D02*
X120689692Y-88403836D01*
X120689692Y-88403836D02*
X120737316Y-88594332D01*
X120737316Y-88594332D02*
X120737316Y-88737203D01*
X120737316Y-88737203D02*
X120689692Y-88927699D01*
X120689692Y-88927699D02*
X120642068Y-89022947D01*
X120642068Y-89022947D02*
X120546820Y-89118195D01*
X120546820Y-89118195D02*
X120403949Y-89165819D01*
X120403949Y-89165819D02*
X120165829Y-89165819D01*
X121594546Y-88165717D02*
X121404051Y-88165717D01*
X121404051Y-88165717D02*
X121308803Y-88213341D01*
X121308803Y-88213341D02*
X121261179Y-88260964D01*
X121261179Y-88260964D02*
X121165931Y-88403836D01*
X121165931Y-88403836D02*
X121118307Y-88594332D01*
X121118307Y-88594332D02*
X121118307Y-88975323D01*
X121118307Y-88975323D02*
X121165931Y-89070571D01*
X121165931Y-89070571D02*
X121213555Y-89118195D01*
X121213555Y-89118195D02*
X121308803Y-89165819D01*
X121308803Y-89165819D02*
X121499298Y-89165819D01*
X121499298Y-89165819D02*
X121594546Y-89118195D01*
X121594546Y-89118195D02*
X121642170Y-89070571D01*
X121642170Y-89070571D02*
X121689794Y-88975323D01*
X121689794Y-88975323D02*
X121689794Y-88737203D01*
X121689794Y-88737203D02*
X121642170Y-88641956D01*
X121642170Y-88641956D02*
X121594546Y-88594332D01*
X121594546Y-88594332D02*
X121499298Y-88546708D01*
X121499298Y-88546708D02*
X121308803Y-88546708D01*
X121308803Y-88546708D02*
X121213555Y-88594332D01*
X121213555Y-88594332D02*
X121165931Y-88641956D01*
X121165931Y-88641956D02*
X121118307Y-88737203D01*
%TO.C,D2*%
X120216629Y-82358619D02*
X120216629Y-81358517D01*
X120216629Y-81358517D02*
X120454749Y-81358517D01*
X120454749Y-81358517D02*
X120597620Y-81406141D01*
X120597620Y-81406141D02*
X120692868Y-81501388D01*
X120692868Y-81501388D02*
X120740492Y-81596636D01*
X120740492Y-81596636D02*
X120788116Y-81787132D01*
X120788116Y-81787132D02*
X120788116Y-81930003D01*
X120788116Y-81930003D02*
X120740492Y-82120499D01*
X120740492Y-82120499D02*
X120692868Y-82215747D01*
X120692868Y-82215747D02*
X120597620Y-82310995D01*
X120597620Y-82310995D02*
X120454749Y-82358619D01*
X120454749Y-82358619D02*
X120216629Y-82358619D01*
X121169107Y-81453764D02*
X121216731Y-81406141D01*
X121216731Y-81406141D02*
X121311979Y-81358517D01*
X121311979Y-81358517D02*
X121550098Y-81358517D01*
X121550098Y-81358517D02*
X121645346Y-81406141D01*
X121645346Y-81406141D02*
X121692970Y-81453764D01*
X121692970Y-81453764D02*
X121740594Y-81549012D01*
X121740594Y-81549012D02*
X121740594Y-81644260D01*
X121740594Y-81644260D02*
X121692970Y-81787132D01*
X121692970Y-81787132D02*
X121121483Y-82358619D01*
X121121483Y-82358619D02*
X121740594Y-82358619D01*
%TO.C,MX6*%
X173212286Y-84441380D02*
X173212286Y-83441380D01*
X173212286Y-83441380D02*
X173545619Y-84155666D01*
X173545619Y-84155666D02*
X173878952Y-83441380D01*
X173878952Y-83441380D02*
X173878952Y-84441380D01*
X174259905Y-83441380D02*
X174926571Y-84441380D01*
X174926571Y-83441380D02*
X174259905Y-84441380D01*
X175736095Y-83441380D02*
X175545619Y-83441380D01*
X175545619Y-83441380D02*
X175450381Y-83489000D01*
X175450381Y-83489000D02*
X175402762Y-83536619D01*
X175402762Y-83536619D02*
X175307524Y-83679476D01*
X175307524Y-83679476D02*
X175259905Y-83869952D01*
X175259905Y-83869952D02*
X175259905Y-84250904D01*
X175259905Y-84250904D02*
X175307524Y-84346142D01*
X175307524Y-84346142D02*
X175355143Y-84393761D01*
X175355143Y-84393761D02*
X175450381Y-84441380D01*
X175450381Y-84441380D02*
X175640857Y-84441380D01*
X175640857Y-84441380D02*
X175736095Y-84393761D01*
X175736095Y-84393761D02*
X175783714Y-84346142D01*
X175783714Y-84346142D02*
X175831333Y-84250904D01*
X175831333Y-84250904D02*
X175831333Y-84012809D01*
X175831333Y-84012809D02*
X175783714Y-83917571D01*
X175783714Y-83917571D02*
X175736095Y-83869952D01*
X175736095Y-83869952D02*
X175640857Y-83822333D01*
X175640857Y-83822333D02*
X175450381Y-83822333D01*
X175450381Y-83822333D02*
X175355143Y-83869952D01*
X175355143Y-83869952D02*
X175307524Y-83917571D01*
X175307524Y-83917571D02*
X175259905Y-84012809D01*
%TO.C,D1*%
X120292829Y-70725419D02*
X120292829Y-69725317D01*
X120292829Y-69725317D02*
X120530949Y-69725317D01*
X120530949Y-69725317D02*
X120673820Y-69772941D01*
X120673820Y-69772941D02*
X120769068Y-69868188D01*
X120769068Y-69868188D02*
X120816692Y-69963436D01*
X120816692Y-69963436D02*
X120864316Y-70153932D01*
X120864316Y-70153932D02*
X120864316Y-70296803D01*
X120864316Y-70296803D02*
X120816692Y-70487299D01*
X120816692Y-70487299D02*
X120769068Y-70582547D01*
X120769068Y-70582547D02*
X120673820Y-70677795D01*
X120673820Y-70677795D02*
X120530949Y-70725419D01*
X120530949Y-70725419D02*
X120292829Y-70725419D01*
X121816794Y-70725419D02*
X121245307Y-70725419D01*
X121531051Y-70725419D02*
X121531051Y-69725317D01*
X121531051Y-69725317D02*
X121435803Y-69868188D01*
X121435803Y-69868188D02*
X121340555Y-69963436D01*
X121340555Y-69963436D02*
X121245307Y-70011060D01*
%TO.C,D7*%
X155217829Y-70852419D02*
X155217829Y-69852317D01*
X155217829Y-69852317D02*
X155455949Y-69852317D01*
X155455949Y-69852317D02*
X155598820Y-69899941D01*
X155598820Y-69899941D02*
X155694068Y-69995188D01*
X155694068Y-69995188D02*
X155741692Y-70090436D01*
X155741692Y-70090436D02*
X155789316Y-70280932D01*
X155789316Y-70280932D02*
X155789316Y-70423803D01*
X155789316Y-70423803D02*
X155741692Y-70614299D01*
X155741692Y-70614299D02*
X155694068Y-70709547D01*
X155694068Y-70709547D02*
X155598820Y-70804795D01*
X155598820Y-70804795D02*
X155455949Y-70852419D01*
X155455949Y-70852419D02*
X155217829Y-70852419D01*
X156122683Y-69852317D02*
X156789418Y-69852317D01*
X156789418Y-69852317D02*
X156360803Y-70852419D01*
%TO.C,MX4*%
X102981286Y-84441380D02*
X102981286Y-83441380D01*
X102981286Y-83441380D02*
X103314619Y-84155666D01*
X103314619Y-84155666D02*
X103647952Y-83441380D01*
X103647952Y-83441380D02*
X103647952Y-84441380D01*
X104028905Y-83441380D02*
X104695571Y-84441380D01*
X104695571Y-83441380D02*
X104028905Y-84441380D01*
X105505095Y-83774714D02*
X105505095Y-84441380D01*
X105267000Y-83393761D02*
X105028905Y-84108047D01*
X105028905Y-84108047D02*
X105647952Y-84108047D01*
%TO.C,D5*%
X120292829Y-67931419D02*
X120292829Y-66931317D01*
X120292829Y-66931317D02*
X120530949Y-66931317D01*
X120530949Y-66931317D02*
X120673820Y-66978941D01*
X120673820Y-66978941D02*
X120769068Y-67074188D01*
X120769068Y-67074188D02*
X120816692Y-67169436D01*
X120816692Y-67169436D02*
X120864316Y-67359932D01*
X120864316Y-67359932D02*
X120864316Y-67502803D01*
X120864316Y-67502803D02*
X120816692Y-67693299D01*
X120816692Y-67693299D02*
X120769068Y-67788547D01*
X120769068Y-67788547D02*
X120673820Y-67883795D01*
X120673820Y-67883795D02*
X120530949Y-67931419D01*
X120530949Y-67931419D02*
X120292829Y-67931419D01*
X121769170Y-66931317D02*
X121292931Y-66931317D01*
X121292931Y-66931317D02*
X121245307Y-67407556D01*
X121245307Y-67407556D02*
X121292931Y-67359932D01*
X121292931Y-67359932D02*
X121388179Y-67312308D01*
X121388179Y-67312308D02*
X121626298Y-67312308D01*
X121626298Y-67312308D02*
X121721546Y-67359932D01*
X121721546Y-67359932D02*
X121769170Y-67407556D01*
X121769170Y-67407556D02*
X121816794Y-67502803D01*
X121816794Y-67502803D02*
X121816794Y-67740923D01*
X121816794Y-67740923D02*
X121769170Y-67836171D01*
X121769170Y-67836171D02*
X121721546Y-67883795D01*
X121721546Y-67883795D02*
X121626298Y-67931419D01*
X121626298Y-67931419D02*
X121388179Y-67931419D01*
X121388179Y-67931419D02*
X121292931Y-67883795D01*
X121292931Y-67883795D02*
X121245307Y-67836171D01*
%TO.C,D8*%
X155217829Y-67931419D02*
X155217829Y-66931317D01*
X155217829Y-66931317D02*
X155455949Y-66931317D01*
X155455949Y-66931317D02*
X155598820Y-66978941D01*
X155598820Y-66978941D02*
X155694068Y-67074188D01*
X155694068Y-67074188D02*
X155741692Y-67169436D01*
X155741692Y-67169436D02*
X155789316Y-67359932D01*
X155789316Y-67359932D02*
X155789316Y-67502803D01*
X155789316Y-67502803D02*
X155741692Y-67693299D01*
X155741692Y-67693299D02*
X155694068Y-67788547D01*
X155694068Y-67788547D02*
X155598820Y-67883795D01*
X155598820Y-67883795D02*
X155455949Y-67931419D01*
X155455949Y-67931419D02*
X155217829Y-67931419D01*
X156360803Y-67359932D02*
X156265555Y-67312308D01*
X156265555Y-67312308D02*
X156217931Y-67264684D01*
X156217931Y-67264684D02*
X156170307Y-67169436D01*
X156170307Y-67169436D02*
X156170307Y-67121812D01*
X156170307Y-67121812D02*
X156217931Y-67026564D01*
X156217931Y-67026564D02*
X156265555Y-66978941D01*
X156265555Y-66978941D02*
X156360803Y-66931317D01*
X156360803Y-66931317D02*
X156551298Y-66931317D01*
X156551298Y-66931317D02*
X156646546Y-66978941D01*
X156646546Y-66978941D02*
X156694170Y-67026564D01*
X156694170Y-67026564D02*
X156741794Y-67121812D01*
X156741794Y-67121812D02*
X156741794Y-67169436D01*
X156741794Y-67169436D02*
X156694170Y-67264684D01*
X156694170Y-67264684D02*
X156646546Y-67312308D01*
X156646546Y-67312308D02*
X156551298Y-67359932D01*
X156551298Y-67359932D02*
X156360803Y-67359932D01*
X156360803Y-67359932D02*
X156265555Y-67407556D01*
X156265555Y-67407556D02*
X156217931Y-67455180D01*
X156217931Y-67455180D02*
X156170307Y-67550427D01*
X156170307Y-67550427D02*
X156170307Y-67740923D01*
X156170307Y-67740923D02*
X156217931Y-67836171D01*
X156217931Y-67836171D02*
X156265555Y-67883795D01*
X156265555Y-67883795D02*
X156360803Y-67931419D01*
X156360803Y-67931419D02*
X156551298Y-67931419D01*
X156551298Y-67931419D02*
X156646546Y-67883795D01*
X156646546Y-67883795D02*
X156694170Y-67836171D01*
X156694170Y-67836171D02*
X156741794Y-67740923D01*
X156741794Y-67740923D02*
X156741794Y-67550427D01*
X156741794Y-67550427D02*
X156694170Y-67455180D01*
X156694170Y-67455180D02*
X156646546Y-67407556D01*
X156646546Y-67407556D02*
X156551298Y-67359932D01*
%TO.C,MX5*%
X173212286Y-65391380D02*
X173212286Y-64391380D01*
X173212286Y-64391380D02*
X173545619Y-65105666D01*
X173545619Y-65105666D02*
X173878952Y-64391380D01*
X173878952Y-64391380D02*
X173878952Y-65391380D01*
X174259905Y-64391380D02*
X174926571Y-65391380D01*
X174926571Y-64391380D02*
X174259905Y-65391380D01*
X175783714Y-64391380D02*
X175307524Y-64391380D01*
X175307524Y-64391380D02*
X175259905Y-64867571D01*
X175259905Y-64867571D02*
X175307524Y-64819952D01*
X175307524Y-64819952D02*
X175402762Y-64772333D01*
X175402762Y-64772333D02*
X175640857Y-64772333D01*
X175640857Y-64772333D02*
X175736095Y-64819952D01*
X175736095Y-64819952D02*
X175783714Y-64867571D01*
X175783714Y-64867571D02*
X175831333Y-64962809D01*
X175831333Y-64962809D02*
X175831333Y-65200904D01*
X175831333Y-65200904D02*
X175783714Y-65296142D01*
X175783714Y-65296142D02*
X175736095Y-65343761D01*
X175736095Y-65343761D02*
X175640857Y-65391380D01*
X175640857Y-65391380D02*
X175402762Y-65391380D01*
X175402762Y-65391380D02*
X175307524Y-65343761D01*
X175307524Y-65343761D02*
X175259905Y-65296142D01*
D11*
%TO.C,U1*%
X137525573Y-68852142D02*
X138553669Y-68852142D01*
X138553669Y-68852142D02*
X138674621Y-68779571D01*
X138674621Y-68779571D02*
X138735097Y-68707000D01*
X138735097Y-68707000D02*
X138795573Y-68561857D01*
X138795573Y-68561857D02*
X138795573Y-68271571D01*
X138795573Y-68271571D02*
X138735097Y-68126428D01*
X138735097Y-68126428D02*
X138674621Y-68053857D01*
X138674621Y-68053857D02*
X138553669Y-67981285D01*
X138553669Y-67981285D02*
X137525573Y-67981285D01*
X138795573Y-66457286D02*
X138795573Y-67328143D01*
X138795573Y-66892714D02*
X137525573Y-66892714D01*
X137525573Y-66892714D02*
X137707002Y-67037857D01*
X137707002Y-67037857D02*
X137827954Y-67183000D01*
X137827954Y-67183000D02*
X137888430Y-67328143D01*
D10*
%TO.C,MX8*%
X192262286Y-84441380D02*
X192262286Y-83441380D01*
X192262286Y-83441380D02*
X192595619Y-84155666D01*
X192595619Y-84155666D02*
X192928952Y-83441380D01*
X192928952Y-83441380D02*
X192928952Y-84441380D01*
X193309905Y-83441380D02*
X193976571Y-84441380D01*
X193976571Y-83441380D02*
X193309905Y-84441380D01*
X194500381Y-83869952D02*
X194405143Y-83822333D01*
X194405143Y-83822333D02*
X194357524Y-83774714D01*
X194357524Y-83774714D02*
X194309905Y-83679476D01*
X194309905Y-83679476D02*
X194309905Y-83631857D01*
X194309905Y-83631857D02*
X194357524Y-83536619D01*
X194357524Y-83536619D02*
X194405143Y-83489000D01*
X194405143Y-83489000D02*
X194500381Y-83441380D01*
X194500381Y-83441380D02*
X194690857Y-83441380D01*
X194690857Y-83441380D02*
X194786095Y-83489000D01*
X194786095Y-83489000D02*
X194833714Y-83536619D01*
X194833714Y-83536619D02*
X194881333Y-83631857D01*
X194881333Y-83631857D02*
X194881333Y-83679476D01*
X194881333Y-83679476D02*
X194833714Y-83774714D01*
X194833714Y-83774714D02*
X194786095Y-83822333D01*
X194786095Y-83822333D02*
X194690857Y-83869952D01*
X194690857Y-83869952D02*
X194500381Y-83869952D01*
X194500381Y-83869952D02*
X194405143Y-83917571D01*
X194405143Y-83917571D02*
X194357524Y-83965190D01*
X194357524Y-83965190D02*
X194309905Y-84060428D01*
X194309905Y-84060428D02*
X194309905Y-84250904D01*
X194309905Y-84250904D02*
X194357524Y-84346142D01*
X194357524Y-84346142D02*
X194405143Y-84393761D01*
X194405143Y-84393761D02*
X194500381Y-84441380D01*
X194500381Y-84441380D02*
X194690857Y-84441380D01*
X194690857Y-84441380D02*
X194786095Y-84393761D01*
X194786095Y-84393761D02*
X194833714Y-84346142D01*
X194833714Y-84346142D02*
X194881333Y-84250904D01*
X194881333Y-84250904D02*
X194881333Y-84060428D01*
X194881333Y-84060428D02*
X194833714Y-83965190D01*
X194833714Y-83965190D02*
X194786095Y-83917571D01*
X194786095Y-83917571D02*
X194690857Y-83869952D01*
%TO.C,128x32oLed1*%
X135944904Y-53105380D02*
X135373476Y-53105380D01*
X135659190Y-53105380D02*
X135659190Y-52105380D01*
X135659190Y-52105380D02*
X135563952Y-52248238D01*
X135563952Y-52248238D02*
X135468714Y-52343476D01*
X135468714Y-52343476D02*
X135373476Y-52391095D01*
X136325857Y-52200619D02*
X136373476Y-52153000D01*
X136373476Y-52153000D02*
X136468714Y-52105380D01*
X136468714Y-52105380D02*
X136706809Y-52105380D01*
X136706809Y-52105380D02*
X136802047Y-52153000D01*
X136802047Y-52153000D02*
X136849666Y-52200619D01*
X136849666Y-52200619D02*
X136897285Y-52295857D01*
X136897285Y-52295857D02*
X136897285Y-52391095D01*
X136897285Y-52391095D02*
X136849666Y-52533952D01*
X136849666Y-52533952D02*
X136278238Y-53105380D01*
X136278238Y-53105380D02*
X136897285Y-53105380D01*
X137468714Y-52533952D02*
X137373476Y-52486333D01*
X137373476Y-52486333D02*
X137325857Y-52438714D01*
X137325857Y-52438714D02*
X137278238Y-52343476D01*
X137278238Y-52343476D02*
X137278238Y-52295857D01*
X137278238Y-52295857D02*
X137325857Y-52200619D01*
X137325857Y-52200619D02*
X137373476Y-52153000D01*
X137373476Y-52153000D02*
X137468714Y-52105380D01*
X137468714Y-52105380D02*
X137659190Y-52105380D01*
X137659190Y-52105380D02*
X137754428Y-52153000D01*
X137754428Y-52153000D02*
X137802047Y-52200619D01*
X137802047Y-52200619D02*
X137849666Y-52295857D01*
X137849666Y-52295857D02*
X137849666Y-52343476D01*
X137849666Y-52343476D02*
X137802047Y-52438714D01*
X137802047Y-52438714D02*
X137754428Y-52486333D01*
X137754428Y-52486333D02*
X137659190Y-52533952D01*
X137659190Y-52533952D02*
X137468714Y-52533952D01*
X137468714Y-52533952D02*
X137373476Y-52581571D01*
X137373476Y-52581571D02*
X137325857Y-52629190D01*
X137325857Y-52629190D02*
X137278238Y-52724428D01*
X137278238Y-52724428D02*
X137278238Y-52914904D01*
X137278238Y-52914904D02*
X137325857Y-53010142D01*
X137325857Y-53010142D02*
X137373476Y-53057761D01*
X137373476Y-53057761D02*
X137468714Y-53105380D01*
X137468714Y-53105380D02*
X137659190Y-53105380D01*
X137659190Y-53105380D02*
X137754428Y-53057761D01*
X137754428Y-53057761D02*
X137802047Y-53010142D01*
X137802047Y-53010142D02*
X137849666Y-52914904D01*
X137849666Y-52914904D02*
X137849666Y-52724428D01*
X137849666Y-52724428D02*
X137802047Y-52629190D01*
X137802047Y-52629190D02*
X137754428Y-52581571D01*
X137754428Y-52581571D02*
X137659190Y-52533952D01*
X138183000Y-53105380D02*
X138706809Y-52438714D01*
X138183000Y-52438714D02*
X138706809Y-53105380D01*
X138992524Y-52105380D02*
X139611571Y-52105380D01*
X139611571Y-52105380D02*
X139278238Y-52486333D01*
X139278238Y-52486333D02*
X139421095Y-52486333D01*
X139421095Y-52486333D02*
X139516333Y-52533952D01*
X139516333Y-52533952D02*
X139563952Y-52581571D01*
X139563952Y-52581571D02*
X139611571Y-52676809D01*
X139611571Y-52676809D02*
X139611571Y-52914904D01*
X139611571Y-52914904D02*
X139563952Y-53010142D01*
X139563952Y-53010142D02*
X139516333Y-53057761D01*
X139516333Y-53057761D02*
X139421095Y-53105380D01*
X139421095Y-53105380D02*
X139135381Y-53105380D01*
X139135381Y-53105380D02*
X139040143Y-53057761D01*
X139040143Y-53057761D02*
X138992524Y-53010142D01*
X139992524Y-52200619D02*
X140040143Y-52153000D01*
X140040143Y-52153000D02*
X140135381Y-52105380D01*
X140135381Y-52105380D02*
X140373476Y-52105380D01*
X140373476Y-52105380D02*
X140468714Y-52153000D01*
X140468714Y-52153000D02*
X140516333Y-52200619D01*
X140516333Y-52200619D02*
X140563952Y-52295857D01*
X140563952Y-52295857D02*
X140563952Y-52391095D01*
X140563952Y-52391095D02*
X140516333Y-52533952D01*
X140516333Y-52533952D02*
X139944905Y-53105380D01*
X139944905Y-53105380D02*
X140563952Y-53105380D01*
X141135381Y-53105380D02*
X141040143Y-53057761D01*
X141040143Y-53057761D02*
X140992524Y-53010142D01*
X140992524Y-53010142D02*
X140944905Y-52914904D01*
X140944905Y-52914904D02*
X140944905Y-52629190D01*
X140944905Y-52629190D02*
X140992524Y-52533952D01*
X140992524Y-52533952D02*
X141040143Y-52486333D01*
X141040143Y-52486333D02*
X141135381Y-52438714D01*
X141135381Y-52438714D02*
X141278238Y-52438714D01*
X141278238Y-52438714D02*
X141373476Y-52486333D01*
X141373476Y-52486333D02*
X141421095Y-52533952D01*
X141421095Y-52533952D02*
X141468714Y-52629190D01*
X141468714Y-52629190D02*
X141468714Y-52914904D01*
X141468714Y-52914904D02*
X141421095Y-53010142D01*
X141421095Y-53010142D02*
X141373476Y-53057761D01*
X141373476Y-53057761D02*
X141278238Y-53105380D01*
X141278238Y-53105380D02*
X141135381Y-53105380D01*
X142373476Y-53105380D02*
X141897286Y-53105380D01*
X141897286Y-53105380D02*
X141897286Y-52105380D01*
X143087762Y-53057761D02*
X142992524Y-53105380D01*
X142992524Y-53105380D02*
X142802048Y-53105380D01*
X142802048Y-53105380D02*
X142706810Y-53057761D01*
X142706810Y-53057761D02*
X142659191Y-52962523D01*
X142659191Y-52962523D02*
X142659191Y-52581571D01*
X142659191Y-52581571D02*
X142706810Y-52486333D01*
X142706810Y-52486333D02*
X142802048Y-52438714D01*
X142802048Y-52438714D02*
X142992524Y-52438714D01*
X142992524Y-52438714D02*
X143087762Y-52486333D01*
X143087762Y-52486333D02*
X143135381Y-52581571D01*
X143135381Y-52581571D02*
X143135381Y-52676809D01*
X143135381Y-52676809D02*
X142659191Y-52772047D01*
X143992524Y-53105380D02*
X143992524Y-52105380D01*
X143992524Y-53057761D02*
X143897286Y-53105380D01*
X143897286Y-53105380D02*
X143706810Y-53105380D01*
X143706810Y-53105380D02*
X143611572Y-53057761D01*
X143611572Y-53057761D02*
X143563953Y-53010142D01*
X143563953Y-53010142D02*
X143516334Y-52914904D01*
X143516334Y-52914904D02*
X143516334Y-52629190D01*
X143516334Y-52629190D02*
X143563953Y-52533952D01*
X143563953Y-52533952D02*
X143611572Y-52486333D01*
X143611572Y-52486333D02*
X143706810Y-52438714D01*
X143706810Y-52438714D02*
X143897286Y-52438714D01*
X143897286Y-52438714D02*
X143992524Y-52486333D01*
X144992524Y-53105380D02*
X144421096Y-53105380D01*
X144706810Y-53105380D02*
X144706810Y-52105380D01*
X144706810Y-52105380D02*
X144611572Y-52248238D01*
X144611572Y-52248238D02*
X144516334Y-52343476D01*
X144516334Y-52343476D02*
X144421096Y-52391095D01*
X143331571Y-84899250D02*
X143260143Y-84863535D01*
X143260143Y-84863535D02*
X143153000Y-84863535D01*
X143153000Y-84863535D02*
X143045857Y-84899250D01*
X143045857Y-84899250D02*
X142974428Y-84970678D01*
X142974428Y-84970678D02*
X142938714Y-85042107D01*
X142938714Y-85042107D02*
X142903000Y-85184964D01*
X142903000Y-85184964D02*
X142903000Y-85292107D01*
X142903000Y-85292107D02*
X142938714Y-85434964D01*
X142938714Y-85434964D02*
X142974428Y-85506392D01*
X142974428Y-85506392D02*
X143045857Y-85577821D01*
X143045857Y-85577821D02*
X143153000Y-85613535D01*
X143153000Y-85613535D02*
X143224428Y-85613535D01*
X143224428Y-85613535D02*
X143331571Y-85577821D01*
X143331571Y-85577821D02*
X143367285Y-85542107D01*
X143367285Y-85542107D02*
X143367285Y-85292107D01*
X143367285Y-85292107D02*
X143224428Y-85292107D01*
X143688714Y-85613535D02*
X143688714Y-84863535D01*
X143688714Y-84863535D02*
X144117285Y-85613535D01*
X144117285Y-85613535D02*
X144117285Y-84863535D01*
X144474428Y-85613535D02*
X144474428Y-84863535D01*
X144474428Y-84863535D02*
X144652999Y-84863535D01*
X144652999Y-84863535D02*
X144760142Y-84899250D01*
X144760142Y-84899250D02*
X144831571Y-84970678D01*
X144831571Y-84970678D02*
X144867285Y-85042107D01*
X144867285Y-85042107D02*
X144902999Y-85184964D01*
X144902999Y-85184964D02*
X144902999Y-85292107D01*
X144902999Y-85292107D02*
X144867285Y-85434964D01*
X144867285Y-85434964D02*
X144831571Y-85506392D01*
X144831571Y-85506392D02*
X144760142Y-85577821D01*
X144760142Y-85577821D02*
X144652999Y-85613535D01*
X144652999Y-85613535D02*
X144474428Y-85613535D01*
X137930143Y-85577821D02*
X138037286Y-85613535D01*
X138037286Y-85613535D02*
X138215857Y-85613535D01*
X138215857Y-85613535D02*
X138287286Y-85577821D01*
X138287286Y-85577821D02*
X138323000Y-85542107D01*
X138323000Y-85542107D02*
X138358714Y-85470678D01*
X138358714Y-85470678D02*
X138358714Y-85399250D01*
X138358714Y-85399250D02*
X138323000Y-85327821D01*
X138323000Y-85327821D02*
X138287286Y-85292107D01*
X138287286Y-85292107D02*
X138215857Y-85256392D01*
X138215857Y-85256392D02*
X138073000Y-85220678D01*
X138073000Y-85220678D02*
X138001571Y-85184964D01*
X138001571Y-85184964D02*
X137965857Y-85149250D01*
X137965857Y-85149250D02*
X137930143Y-85077821D01*
X137930143Y-85077821D02*
X137930143Y-85006392D01*
X137930143Y-85006392D02*
X137965857Y-84934964D01*
X137965857Y-84934964D02*
X138001571Y-84899250D01*
X138001571Y-84899250D02*
X138073000Y-84863535D01*
X138073000Y-84863535D02*
X138251571Y-84863535D01*
X138251571Y-84863535D02*
X138358714Y-84899250D01*
X139108714Y-85542107D02*
X139073000Y-85577821D01*
X139073000Y-85577821D02*
X138965857Y-85613535D01*
X138965857Y-85613535D02*
X138894429Y-85613535D01*
X138894429Y-85613535D02*
X138787286Y-85577821D01*
X138787286Y-85577821D02*
X138715857Y-85506392D01*
X138715857Y-85506392D02*
X138680143Y-85434964D01*
X138680143Y-85434964D02*
X138644429Y-85292107D01*
X138644429Y-85292107D02*
X138644429Y-85184964D01*
X138644429Y-85184964D02*
X138680143Y-85042107D01*
X138680143Y-85042107D02*
X138715857Y-84970678D01*
X138715857Y-84970678D02*
X138787286Y-84899250D01*
X138787286Y-84899250D02*
X138894429Y-84863535D01*
X138894429Y-84863535D02*
X138965857Y-84863535D01*
X138965857Y-84863535D02*
X139073000Y-84899250D01*
X139073000Y-84899250D02*
X139108714Y-84934964D01*
X139787286Y-85613535D02*
X139430143Y-85613535D01*
X139430143Y-85613535D02*
X139430143Y-84863535D01*
X135372286Y-85577821D02*
X135479429Y-85613535D01*
X135479429Y-85613535D02*
X135658000Y-85613535D01*
X135658000Y-85613535D02*
X135729429Y-85577821D01*
X135729429Y-85577821D02*
X135765143Y-85542107D01*
X135765143Y-85542107D02*
X135800857Y-85470678D01*
X135800857Y-85470678D02*
X135800857Y-85399250D01*
X135800857Y-85399250D02*
X135765143Y-85327821D01*
X135765143Y-85327821D02*
X135729429Y-85292107D01*
X135729429Y-85292107D02*
X135658000Y-85256392D01*
X135658000Y-85256392D02*
X135515143Y-85220678D01*
X135515143Y-85220678D02*
X135443714Y-85184964D01*
X135443714Y-85184964D02*
X135408000Y-85149250D01*
X135408000Y-85149250D02*
X135372286Y-85077821D01*
X135372286Y-85077821D02*
X135372286Y-85006392D01*
X135372286Y-85006392D02*
X135408000Y-84934964D01*
X135408000Y-84934964D02*
X135443714Y-84899250D01*
X135443714Y-84899250D02*
X135515143Y-84863535D01*
X135515143Y-84863535D02*
X135693714Y-84863535D01*
X135693714Y-84863535D02*
X135800857Y-84899250D01*
X136122286Y-85613535D02*
X136122286Y-84863535D01*
X136122286Y-84863535D02*
X136300857Y-84863535D01*
X136300857Y-84863535D02*
X136408000Y-84899250D01*
X136408000Y-84899250D02*
X136479429Y-84970678D01*
X136479429Y-84970678D02*
X136515143Y-85042107D01*
X136515143Y-85042107D02*
X136550857Y-85184964D01*
X136550857Y-85184964D02*
X136550857Y-85292107D01*
X136550857Y-85292107D02*
X136515143Y-85434964D01*
X136515143Y-85434964D02*
X136479429Y-85506392D01*
X136479429Y-85506392D02*
X136408000Y-85577821D01*
X136408000Y-85577821D02*
X136300857Y-85613535D01*
X136300857Y-85613535D02*
X136122286Y-85613535D01*
X136836572Y-85399250D02*
X137193715Y-85399250D01*
X136765143Y-85613535D02*
X137015143Y-84863535D01*
X137015143Y-84863535D02*
X137265143Y-85613535D01*
X140363000Y-84863535D02*
X140613000Y-85613535D01*
X140613000Y-85613535D02*
X140863000Y-84863535D01*
X141541571Y-85542107D02*
X141505857Y-85577821D01*
X141505857Y-85577821D02*
X141398714Y-85613535D01*
X141398714Y-85613535D02*
X141327286Y-85613535D01*
X141327286Y-85613535D02*
X141220143Y-85577821D01*
X141220143Y-85577821D02*
X141148714Y-85506392D01*
X141148714Y-85506392D02*
X141113000Y-85434964D01*
X141113000Y-85434964D02*
X141077286Y-85292107D01*
X141077286Y-85292107D02*
X141077286Y-85184964D01*
X141077286Y-85184964D02*
X141113000Y-85042107D01*
X141113000Y-85042107D02*
X141148714Y-84970678D01*
X141148714Y-84970678D02*
X141220143Y-84899250D01*
X141220143Y-84899250D02*
X141327286Y-84863535D01*
X141327286Y-84863535D02*
X141398714Y-84863535D01*
X141398714Y-84863535D02*
X141505857Y-84899250D01*
X141505857Y-84899250D02*
X141541571Y-84934964D01*
X142291571Y-85542107D02*
X142255857Y-85577821D01*
X142255857Y-85577821D02*
X142148714Y-85613535D01*
X142148714Y-85613535D02*
X142077286Y-85613535D01*
X142077286Y-85613535D02*
X141970143Y-85577821D01*
X141970143Y-85577821D02*
X141898714Y-85506392D01*
X141898714Y-85506392D02*
X141863000Y-85434964D01*
X141863000Y-85434964D02*
X141827286Y-85292107D01*
X141827286Y-85292107D02*
X141827286Y-85184964D01*
X141827286Y-85184964D02*
X141863000Y-85042107D01*
X141863000Y-85042107D02*
X141898714Y-84970678D01*
X141898714Y-84970678D02*
X141970143Y-84899250D01*
X141970143Y-84899250D02*
X142077286Y-84863535D01*
X142077286Y-84863535D02*
X142148714Y-84863535D01*
X142148714Y-84863535D02*
X142255857Y-84899250D01*
X142255857Y-84899250D02*
X142291571Y-84934964D01*
X139460380Y-73685619D02*
X139460380Y-73495143D01*
X139460380Y-73495143D02*
X139508000Y-73399905D01*
X139508000Y-73399905D02*
X139603238Y-73304667D01*
X139603238Y-73304667D02*
X139793714Y-73257048D01*
X139793714Y-73257048D02*
X140127047Y-73257048D01*
X140127047Y-73257048D02*
X140317523Y-73304667D01*
X140317523Y-73304667D02*
X140412761Y-73399905D01*
X140412761Y-73399905D02*
X140460380Y-73495143D01*
X140460380Y-73495143D02*
X140460380Y-73685619D01*
X140460380Y-73685619D02*
X140412761Y-73780857D01*
X140412761Y-73780857D02*
X140317523Y-73876095D01*
X140317523Y-73876095D02*
X140127047Y-73923714D01*
X140127047Y-73923714D02*
X139793714Y-73923714D01*
X139793714Y-73923714D02*
X139603238Y-73876095D01*
X139603238Y-73876095D02*
X139508000Y-73780857D01*
X139508000Y-73780857D02*
X139460380Y-73685619D01*
X140460380Y-72352286D02*
X140460380Y-72828476D01*
X140460380Y-72828476D02*
X139460380Y-72828476D01*
X139936571Y-72018952D02*
X139936571Y-71685619D01*
X140460380Y-71542762D02*
X140460380Y-72018952D01*
X140460380Y-72018952D02*
X139460380Y-72018952D01*
X139460380Y-72018952D02*
X139460380Y-71542762D01*
X140460380Y-71114190D02*
X139460380Y-71114190D01*
X139460380Y-71114190D02*
X139460380Y-70876095D01*
X139460380Y-70876095D02*
X139508000Y-70733238D01*
X139508000Y-70733238D02*
X139603238Y-70638000D01*
X139603238Y-70638000D02*
X139698476Y-70590381D01*
X139698476Y-70590381D02*
X139888952Y-70542762D01*
X139888952Y-70542762D02*
X140031809Y-70542762D01*
X140031809Y-70542762D02*
X140222285Y-70590381D01*
X140222285Y-70590381D02*
X140317523Y-70638000D01*
X140317523Y-70638000D02*
X140412761Y-70733238D01*
X140412761Y-70733238D02*
X140460380Y-70876095D01*
X140460380Y-70876095D02*
X140460380Y-71114190D01*
X140460380Y-69514190D02*
X139460380Y-69514190D01*
X139460380Y-69514190D02*
X139460380Y-69133238D01*
X139460380Y-69133238D02*
X139508000Y-69038000D01*
X139508000Y-69038000D02*
X139555619Y-68990381D01*
X139555619Y-68990381D02*
X139650857Y-68942762D01*
X139650857Y-68942762D02*
X139793714Y-68942762D01*
X139793714Y-68942762D02*
X139888952Y-68990381D01*
X139888952Y-68990381D02*
X139936571Y-69038000D01*
X139936571Y-69038000D02*
X139984190Y-69133238D01*
X139984190Y-69133238D02*
X139984190Y-69514190D01*
X140460380Y-68085619D02*
X139936571Y-68085619D01*
X139936571Y-68085619D02*
X139841333Y-68133238D01*
X139841333Y-68133238D02*
X139793714Y-68228476D01*
X139793714Y-68228476D02*
X139793714Y-68418952D01*
X139793714Y-68418952D02*
X139841333Y-68514190D01*
X140412761Y-68085619D02*
X140460380Y-68180857D01*
X140460380Y-68180857D02*
X140460380Y-68418952D01*
X140460380Y-68418952D02*
X140412761Y-68514190D01*
X140412761Y-68514190D02*
X140317523Y-68561809D01*
X140317523Y-68561809D02*
X140222285Y-68561809D01*
X140222285Y-68561809D02*
X140127047Y-68514190D01*
X140127047Y-68514190D02*
X140079428Y-68418952D01*
X140079428Y-68418952D02*
X140079428Y-68180857D01*
X140079428Y-68180857D02*
X140031809Y-68085619D01*
X139793714Y-67609428D02*
X140460380Y-67609428D01*
X139888952Y-67609428D02*
X139841333Y-67561809D01*
X139841333Y-67561809D02*
X139793714Y-67466571D01*
X139793714Y-67466571D02*
X139793714Y-67323714D01*
X139793714Y-67323714D02*
X139841333Y-67228476D01*
X139841333Y-67228476D02*
X139936571Y-67180857D01*
X139936571Y-67180857D02*
X140460380Y-67180857D01*
X140412761Y-66323714D02*
X140460380Y-66418952D01*
X140460380Y-66418952D02*
X140460380Y-66609428D01*
X140460380Y-66609428D02*
X140412761Y-66704666D01*
X140412761Y-66704666D02*
X140317523Y-66752285D01*
X140317523Y-66752285D02*
X139936571Y-66752285D01*
X139936571Y-66752285D02*
X139841333Y-66704666D01*
X139841333Y-66704666D02*
X139793714Y-66609428D01*
X139793714Y-66609428D02*
X139793714Y-66418952D01*
X139793714Y-66418952D02*
X139841333Y-66323714D01*
X139841333Y-66323714D02*
X139936571Y-66276095D01*
X139936571Y-66276095D02*
X140031809Y-66276095D01*
X140031809Y-66276095D02*
X140127047Y-66752285D01*
X140460380Y-65704666D02*
X140412761Y-65799904D01*
X140412761Y-65799904D02*
X140317523Y-65847523D01*
X140317523Y-65847523D02*
X139460380Y-65847523D01*
%TO.C,MX1*%
X83931286Y-65391380D02*
X83931286Y-64391380D01*
X83931286Y-64391380D02*
X84264619Y-65105666D01*
X84264619Y-65105666D02*
X84597952Y-64391380D01*
X84597952Y-64391380D02*
X84597952Y-65391380D01*
X84978905Y-64391380D02*
X85645571Y-65391380D01*
X85645571Y-64391380D02*
X84978905Y-65391380D01*
X86550333Y-65391380D02*
X85978905Y-65391380D01*
X86264619Y-65391380D02*
X86264619Y-64391380D01*
X86264619Y-64391380D02*
X86169381Y-64534238D01*
X86169381Y-64534238D02*
X86074143Y-64629476D01*
X86074143Y-64629476D02*
X85978905Y-64677095D01*
%TO.C,MX3*%
X102981286Y-65391380D02*
X102981286Y-64391380D01*
X102981286Y-64391380D02*
X103314619Y-65105666D01*
X103314619Y-65105666D02*
X103647952Y-64391380D01*
X103647952Y-64391380D02*
X103647952Y-65391380D01*
X104028905Y-64391380D02*
X104695571Y-65391380D01*
X104695571Y-64391380D02*
X104028905Y-65391380D01*
X104981286Y-64391380D02*
X105600333Y-64391380D01*
X105600333Y-64391380D02*
X105267000Y-64772333D01*
X105267000Y-64772333D02*
X105409857Y-64772333D01*
X105409857Y-64772333D02*
X105505095Y-64819952D01*
X105505095Y-64819952D02*
X105552714Y-64867571D01*
X105552714Y-64867571D02*
X105600333Y-64962809D01*
X105600333Y-64962809D02*
X105600333Y-65200904D01*
X105600333Y-65200904D02*
X105552714Y-65296142D01*
X105552714Y-65296142D02*
X105505095Y-65343761D01*
X105505095Y-65343761D02*
X105409857Y-65391380D01*
X105409857Y-65391380D02*
X105124143Y-65391380D01*
X105124143Y-65391380D02*
X105028905Y-65343761D01*
X105028905Y-65343761D02*
X104981286Y-65296142D01*
%TO.C,R1*%
X173869833Y-83045380D02*
X173536500Y-82569190D01*
X173298405Y-83045380D02*
X173298405Y-82045380D01*
X173298405Y-82045380D02*
X173679357Y-82045380D01*
X173679357Y-82045380D02*
X173774595Y-82093000D01*
X173774595Y-82093000D02*
X173822214Y-82140619D01*
X173822214Y-82140619D02*
X173869833Y-82235857D01*
X173869833Y-82235857D02*
X173869833Y-82378714D01*
X173869833Y-82378714D02*
X173822214Y-82473952D01*
X173822214Y-82473952D02*
X173774595Y-82521571D01*
X173774595Y-82521571D02*
X173679357Y-82569190D01*
X173679357Y-82569190D02*
X173298405Y-82569190D01*
X174822214Y-83045380D02*
X174250786Y-83045380D01*
X174536500Y-83045380D02*
X174536500Y-82045380D01*
X174536500Y-82045380D02*
X174441262Y-82188238D01*
X174441262Y-82188238D02*
X174346024Y-82283476D01*
X174346024Y-82283476D02*
X174250786Y-82331095D01*
%TO.C,D4*%
X154405029Y-82307819D02*
X154405029Y-81307717D01*
X154405029Y-81307717D02*
X154643149Y-81307717D01*
X154643149Y-81307717D02*
X154786020Y-81355341D01*
X154786020Y-81355341D02*
X154881268Y-81450588D01*
X154881268Y-81450588D02*
X154928892Y-81545836D01*
X154928892Y-81545836D02*
X154976516Y-81736332D01*
X154976516Y-81736332D02*
X154976516Y-81879203D01*
X154976516Y-81879203D02*
X154928892Y-82069699D01*
X154928892Y-82069699D02*
X154881268Y-82164947D01*
X154881268Y-82164947D02*
X154786020Y-82260195D01*
X154786020Y-82260195D02*
X154643149Y-82307819D01*
X154643149Y-82307819D02*
X154405029Y-82307819D01*
X155833746Y-81641084D02*
X155833746Y-82307819D01*
X155595627Y-81260093D02*
X155357507Y-81974451D01*
X155357507Y-81974451D02*
X155976618Y-81974451D01*
D12*
%TO.C,MX7*%
X186563000Y-65913000D02*
X200533000Y-65913000D01*
X186563000Y-79883000D02*
X186563000Y-65913000D01*
X200533000Y-65913000D02*
X200533000Y-79883000D01*
X200533000Y-79883000D02*
X186563000Y-79883000D01*
D13*
%TO.C,D3*%
X152843600Y-85781000D02*
X152843600Y-86741000D01*
X152843600Y-85781000D02*
X153603600Y-85781000D01*
X152843600Y-86741000D02*
X151923600Y-86741000D01*
X152843600Y-86741000D02*
X152843600Y-87691000D01*
X152843600Y-87701000D02*
X153603600Y-87701000D01*
X156643600Y-85781000D02*
X157403600Y-85781000D01*
X156643600Y-87701000D02*
X157403600Y-87701000D01*
X157403600Y-85791000D02*
X157403600Y-86741000D01*
X157403600Y-86741000D02*
X157403600Y-87701000D01*
X158323600Y-86741000D02*
X157403600Y-86741000D01*
D14*
X149923600Y-86741000D02*
G75*
G03*
X149923600Y-86741000I-100000J0D01*
G01*
D12*
%TO.C,MX2*%
X78232000Y-84963000D02*
X92202000Y-84963000D01*
X78232000Y-98933000D02*
X78232000Y-84963000D01*
X92202000Y-84963000D02*
X92202000Y-98933000D01*
X92202000Y-98933000D02*
X78232000Y-98933000D01*
%TO.C,SW1*%
X153420000Y-55602000D02*
X153420000Y-57102000D01*
X154670000Y-59602000D02*
X159170000Y-59602000D01*
X159170000Y-53102000D02*
X154670000Y-53102000D01*
X160420000Y-57102000D02*
X160420000Y-55602000D01*
D13*
%TO.C,D6*%
X123184000Y-87701000D02*
X123184000Y-86741000D01*
X123184000Y-87701000D02*
X122424000Y-87701000D01*
X123184000Y-86741000D02*
X124104000Y-86741000D01*
X123184000Y-86741000D02*
X123184000Y-85791000D01*
X123184000Y-85781000D02*
X122424000Y-85781000D01*
X119384000Y-87701000D02*
X118624000Y-87701000D01*
X119384000Y-85781000D02*
X118624000Y-85781000D01*
X118624000Y-87691000D02*
X118624000Y-86741000D01*
X118624000Y-86741000D02*
X118624000Y-85781000D01*
X117704000Y-86741000D02*
X118624000Y-86741000D01*
D14*
X126304000Y-86741000D02*
G75*
G03*
X126304000Y-86741000I-100000J0D01*
G01*
D13*
%TO.C,D2*%
X123184000Y-84780000D02*
X123184000Y-83820000D01*
X123184000Y-84780000D02*
X122424000Y-84780000D01*
X123184000Y-83820000D02*
X124104000Y-83820000D01*
X123184000Y-83820000D02*
X123184000Y-82870000D01*
X123184000Y-82860000D02*
X122424000Y-82860000D01*
X119384000Y-84780000D02*
X118624000Y-84780000D01*
X119384000Y-82860000D02*
X118624000Y-82860000D01*
X118624000Y-84770000D02*
X118624000Y-83820000D01*
X118624000Y-83820000D02*
X118624000Y-82860000D01*
X117704000Y-83820000D02*
X118624000Y-83820000D01*
D14*
X126304000Y-83820000D02*
G75*
G03*
X126304000Y-83820000I-100000J0D01*
G01*
D12*
%TO.C,MX6*%
X167513000Y-84963000D02*
X181483000Y-84963000D01*
X167513000Y-98933000D02*
X167513000Y-84963000D01*
X181483000Y-84963000D02*
X181483000Y-98933000D01*
X181483000Y-98933000D02*
X167513000Y-98933000D01*
D13*
%TO.C,D1*%
X123312500Y-71318000D02*
X123312500Y-70358000D01*
X123312500Y-71318000D02*
X122552500Y-71318000D01*
X123312500Y-70358000D02*
X124232500Y-70358000D01*
X123312500Y-70358000D02*
X123312500Y-69408000D01*
X123312500Y-69398000D02*
X122552500Y-69398000D01*
X119512500Y-71318000D02*
X118752500Y-71318000D01*
X119512500Y-69398000D02*
X118752500Y-69398000D01*
X118752500Y-71308000D02*
X118752500Y-70358000D01*
X118752500Y-70358000D02*
X118752500Y-69398000D01*
X117832500Y-70358000D02*
X118752500Y-70358000D01*
D14*
X126432500Y-70358000D02*
G75*
G03*
X126432500Y-70358000I-100000J0D01*
G01*
D13*
%TO.C,D7*%
X153676000Y-69398000D02*
X153676000Y-70358000D01*
X153676000Y-69398000D02*
X154436000Y-69398000D01*
X153676000Y-70358000D02*
X152756000Y-70358000D01*
X153676000Y-70358000D02*
X153676000Y-71308000D01*
X153676000Y-71318000D02*
X154436000Y-71318000D01*
X157476000Y-69398000D02*
X158236000Y-69398000D01*
X157476000Y-71318000D02*
X158236000Y-71318000D01*
X158236000Y-69408000D02*
X158236000Y-70358000D01*
X158236000Y-70358000D02*
X158236000Y-71318000D01*
X159156000Y-70358000D02*
X158236000Y-70358000D01*
D14*
X150756000Y-70358000D02*
G75*
G03*
X150756000Y-70358000I-100000J0D01*
G01*
D12*
%TO.C,MX4*%
X97282000Y-84963000D02*
X111252000Y-84963000D01*
X97282000Y-98933000D02*
X97282000Y-84963000D01*
X111252000Y-84963000D02*
X111252000Y-98933000D01*
X111252000Y-98933000D02*
X97282000Y-98933000D01*
D13*
%TO.C,D5*%
X123312500Y-68524000D02*
X123312500Y-67564000D01*
X123312500Y-68524000D02*
X122552500Y-68524000D01*
X123312500Y-67564000D02*
X124232500Y-67564000D01*
X123312500Y-67564000D02*
X123312500Y-66614000D01*
X123312500Y-66604000D02*
X122552500Y-66604000D01*
X119512500Y-68524000D02*
X118752500Y-68524000D01*
X119512500Y-66604000D02*
X118752500Y-66604000D01*
X118752500Y-68514000D02*
X118752500Y-67564000D01*
X118752500Y-67564000D02*
X118752500Y-66604000D01*
X117832500Y-67564000D02*
X118752500Y-67564000D01*
D14*
X126432500Y-67564000D02*
G75*
G03*
X126432500Y-67564000I-100000J0D01*
G01*
D13*
%TO.C,D8*%
X153676000Y-66604000D02*
X153676000Y-67564000D01*
X153676000Y-66604000D02*
X154436000Y-66604000D01*
X153676000Y-67564000D02*
X152756000Y-67564000D01*
X153676000Y-67564000D02*
X153676000Y-68514000D01*
X153676000Y-68524000D02*
X154436000Y-68524000D01*
X157476000Y-66604000D02*
X158236000Y-66604000D01*
X157476000Y-68524000D02*
X158236000Y-68524000D01*
X158236000Y-66614000D02*
X158236000Y-67564000D01*
X158236000Y-67564000D02*
X158236000Y-68524000D01*
X159156000Y-67564000D02*
X158236000Y-67564000D01*
D14*
X150756000Y-67564000D02*
G75*
G03*
X150756000Y-67564000I-100000J0D01*
G01*
D12*
%TO.C,MX5*%
X167513000Y-65913000D02*
X181483000Y-65913000D01*
X167513000Y-79883000D02*
X167513000Y-65913000D01*
X181483000Y-65913000D02*
X181483000Y-79883000D01*
X181483000Y-79883000D02*
X167513000Y-79883000D01*
D15*
%TO.C,U1*%
X148844000Y-52451000D02*
X131064000Y-52451000D01*
X133604000Y-52451000D02*
X133604000Y-54991000D01*
X131064000Y-52451000D02*
X131064000Y-82931000D01*
X133604000Y-54991000D02*
X131064000Y-54991000D01*
X148844000Y-82931000D02*
X148844000Y-52451000D01*
X131064000Y-82931000D02*
X148844000Y-82931000D01*
D12*
%TO.C,MX8*%
X186563000Y-84963000D02*
X200533000Y-84963000D01*
X186563000Y-98933000D02*
X186563000Y-84963000D01*
X200533000Y-84963000D02*
X200533000Y-98933000D01*
X200533000Y-98933000D02*
X186563000Y-98933000D01*
D16*
%TO.C,128x32oLed1*%
X146093000Y-50838000D02*
X134093000Y-50838000D01*
X134093000Y-50838000D02*
X134093000Y-88838000D01*
X146093000Y-54338000D02*
X134093000Y-54338000D01*
X146093000Y-83838000D02*
X134093000Y-83838000D01*
X146093000Y-88838000D02*
X146093000Y-50838000D01*
X134093000Y-88838000D02*
X146093000Y-88838000D01*
D12*
%TO.C,MX1*%
X78232000Y-65913000D02*
X92202000Y-65913000D01*
X78232000Y-79883000D02*
X78232000Y-65913000D01*
X92202000Y-65913000D02*
X92202000Y-79883000D01*
X92202000Y-79883000D02*
X78232000Y-79883000D01*
%TO.C,MX3*%
X97282000Y-65913000D02*
X111252000Y-65913000D01*
X97282000Y-79883000D02*
X97282000Y-65913000D01*
X111252000Y-65913000D02*
X111252000Y-79883000D01*
X111252000Y-79883000D02*
X97282000Y-79883000D01*
D13*
%TO.C,R1*%
X122753500Y-91766000D02*
X122753500Y-93296000D01*
X122753500Y-91766000D02*
X127258500Y-91766000D01*
X122753500Y-100766000D02*
X122753500Y-99236000D01*
X122753500Y-100766000D02*
X126058500Y-100766000D01*
X129248500Y-100766000D02*
X151258500Y-100766000D01*
X130448500Y-91766000D02*
X150058500Y-91766000D01*
X153248500Y-91766000D02*
X157753500Y-91766000D01*
X154448500Y-100766000D02*
X157753500Y-100766000D01*
X157753500Y-91766000D02*
X157753500Y-93296000D01*
X157753500Y-100766000D02*
X157753500Y-95736000D01*
D14*
X121703500Y-94516000D02*
G75*
G03*
X121703500Y-94516000I-100000J0D01*
G01*
D13*
%TO.C,D4*%
X152863200Y-82860000D02*
X152863200Y-83820000D01*
X152863200Y-82860000D02*
X153623200Y-82860000D01*
X152863200Y-83820000D02*
X151943200Y-83820000D01*
X152863200Y-83820000D02*
X152863200Y-84770000D01*
X152863200Y-84780000D02*
X153623200Y-84780000D01*
X156663200Y-82860000D02*
X157423200Y-82860000D01*
X156663200Y-84780000D02*
X157423200Y-84780000D01*
X157423200Y-82870000D02*
X157423200Y-83820000D01*
X157423200Y-83820000D02*
X157423200Y-84780000D01*
X158343200Y-83820000D02*
X157423200Y-83820000D01*
D14*
X149943200Y-83820000D02*
G75*
G03*
X149943200Y-83820000I-100000J0D01*
G01*
%TD*%
D17*
%TO.C,U1*%
X132333999Y-53720999D03*
D18*
X132334000Y-56261000D03*
X132334000Y-58801000D03*
X132334000Y-61341000D03*
X132334000Y-63881000D03*
X132334000Y-66421000D03*
X132334000Y-68961000D03*
X132334000Y-71501000D03*
X132334000Y-74041000D03*
X132334000Y-76581000D03*
X132334000Y-79121000D03*
X132334000Y-81661000D03*
X147574000Y-81661000D03*
X147574000Y-79121000D03*
X147574000Y-76581000D03*
X147574000Y-74041000D03*
X147574000Y-71501000D03*
X147574000Y-68961000D03*
X147574000Y-66421000D03*
X147574000Y-63881000D03*
X147574000Y-61341000D03*
X147574000Y-58801000D03*
X147574000Y-56261000D03*
X147574000Y-53721000D03*
%TD*%
M02*
