%TF.GenerationSoftware,KiCad,Pcbnew,(7.0.0)*%
%TF.CreationDate,2023-07-31T10:46:52-07:00*%
%TF.ProjectId,macropad-V3,6d616372-6f70-4616-942d-56332e6b6963,rev?*%
%TF.SameCoordinates,Original*%
%TF.FileFunction,Soldermask,Top*%
%TF.FilePolarity,Negative*%
%FSLAX46Y46*%
G04 Gerber Fmt 4.6, Leading zero omitted, Abs format (unit mm)*
G04 Created by KiCad (PCBNEW (7.0.0)) date 2023-07-31 10:46:52*
%MOMM*%
%LPD*%
G01*
G04 APERTURE LIST*
%ADD10C,1.700000*%
%ADD11C,4.000000*%
%ADD12C,2.200000*%
%ADD13C,2.000000*%
%ADD14C,1.600000*%
%ADD15O,1.600000X1.600000*%
%ADD16R,1.752600X1.752600*%
%ADD17C,1.752600*%
%ADD18R,1.700000X1.700000*%
%ADD19O,1.700000X1.700000*%
%ADD20R,1.800000X1.800000*%
%ADD21C,1.800000*%
%ADD22C,2.550000*%
G04 APERTURE END LIST*
D10*
%TO.C,MX7*%
X188468000Y-72898000D03*
D11*
X193548000Y-72898000D03*
D10*
X198628000Y-72898000D03*
D12*
X196088000Y-67818000D03*
X189738000Y-70358000D03*
%TD*%
D10*
%TO.C,MX2*%
X80137000Y-91948000D03*
D11*
X85217000Y-91948000D03*
D10*
X90297000Y-91948000D03*
D12*
X87757000Y-86868000D03*
X81407000Y-89408000D03*
%TD*%
D13*
%TO.C,SW1*%
X153670000Y-54102000D03*
X160170000Y-54102000D03*
X153670000Y-58602000D03*
X160170000Y-58602000D03*
%TD*%
D14*
%TO.C,R3*%
X128905000Y-83058000D03*
D15*
X116204999Y-83057999D03*
%TD*%
D10*
%TO.C,MX6*%
X169418000Y-91948000D03*
D11*
X174498000Y-91948000D03*
D10*
X179578000Y-91948000D03*
D12*
X177038000Y-86868000D03*
X170688000Y-89408000D03*
%TD*%
D10*
%TO.C,MX4*%
X99187000Y-91948000D03*
D11*
X104267000Y-91948000D03*
D10*
X109347000Y-91948000D03*
D12*
X106807000Y-86868000D03*
X100457000Y-89408000D03*
%TD*%
D10*
%TO.C,MX5*%
X169418000Y-72898000D03*
D11*
X174498000Y-72898000D03*
D10*
X179578000Y-72898000D03*
D12*
X177038000Y-67818000D03*
X170688000Y-70358000D03*
%TD*%
D16*
%TO.C,U1*%
X132333999Y-53720999D03*
D17*
X132334000Y-56261000D03*
X132334000Y-58801000D03*
X132334000Y-61341000D03*
X132334000Y-63881000D03*
X132334000Y-66421000D03*
X132334000Y-68961000D03*
X132334000Y-71501000D03*
X132334000Y-74041000D03*
X132334000Y-76581000D03*
X132334000Y-79121000D03*
X132334000Y-81661000D03*
X147574000Y-81661000D03*
X147574000Y-79121000D03*
X147574000Y-76581000D03*
X147574000Y-74041000D03*
X147574000Y-71501000D03*
X147574000Y-68961000D03*
X147574000Y-66421000D03*
X147574000Y-63881000D03*
X147574000Y-61341000D03*
X147574000Y-58801000D03*
X147574000Y-56261000D03*
X147574000Y-53721000D03*
%TD*%
D10*
%TO.C,MX8*%
X188468000Y-91948000D03*
D11*
X193548000Y-91948000D03*
D10*
X198628000Y-91948000D03*
D12*
X196088000Y-86868000D03*
X189738000Y-89408000D03*
%TD*%
D18*
%TO.C,128x32oLed1*%
X143902999Y-87337999D03*
D19*
X141362999Y-87337999D03*
X138822999Y-87337999D03*
X136282999Y-87337999D03*
%TD*%
D10*
%TO.C,MX1*%
X80137000Y-72898000D03*
D11*
X85217000Y-72898000D03*
D10*
X90297000Y-72898000D03*
D12*
X87757000Y-67818000D03*
X81407000Y-70358000D03*
%TD*%
D14*
%TO.C,R2*%
X128905000Y-86995000D03*
D15*
X116204999Y-86994999D03*
%TD*%
D10*
%TO.C,MX3*%
X99187000Y-72898000D03*
D11*
X104267000Y-72898000D03*
D10*
X109347000Y-72898000D03*
D12*
X106807000Y-67818000D03*
X100457000Y-70358000D03*
%TD*%
D20*
%TO.C,R1*%
X123503499Y-94515999D03*
D21*
X123503500Y-98016000D03*
X157003500Y-94516000D03*
D22*
X128853500Y-92016000D03*
X127653500Y-100516000D03*
X151653500Y-92016000D03*
X152853500Y-100516000D03*
%TD*%
M02*
