%TF.GenerationSoftware,KiCad,Pcbnew,(7.0.0)*%
%TF.CreationDate,2023-07-30T13:50:14-07:00*%
%TF.ProjectId,macropad-v2,6d616372-6f70-4616-942d-76322e6b6963,rev?*%
%TF.SameCoordinates,Original*%
%TF.FileFunction,Copper,L2,Bot*%
%TF.FilePolarity,Positive*%
%FSLAX46Y46*%
G04 Gerber Fmt 4.6, Leading zero omitted, Abs format (unit mm)*
G04 Created by KiCad (PCBNEW (7.0.0)) date 2023-07-30 13:50:14*
%MOMM*%
%LPD*%
G01*
G04 APERTURE LIST*
%TA.AperFunction,ComponentPad*%
%ADD10C,2.200000*%
%TD*%
%TA.AperFunction,ComponentPad*%
%ADD11C,1.238000*%
%TD*%
%TA.AperFunction,ComponentPad*%
%ADD12R,1.238000X1.238000*%
%TD*%
%TA.AperFunction,ComponentPad*%
%ADD13C,2.000000*%
%TD*%
%TA.AperFunction,ComponentPad*%
%ADD14R,1.752600X1.752600*%
%TD*%
%TA.AperFunction,ComponentPad*%
%ADD15C,1.752600*%
%TD*%
%TA.AperFunction,ComponentPad*%
%ADD16R,1.700000X1.700000*%
%TD*%
%TA.AperFunction,ComponentPad*%
%ADD17O,1.700000X1.700000*%
%TD*%
%TA.AperFunction,ComponentPad*%
%ADD18R,1.800000X1.800000*%
%TD*%
%TA.AperFunction,ComponentPad*%
%ADD19C,1.800000*%
%TD*%
%TA.AperFunction,ComponentPad*%
%ADD20C,2.550000*%
%TD*%
%TA.AperFunction,ViaPad*%
%ADD21C,0.800000*%
%TD*%
%TA.AperFunction,Conductor*%
%ADD22C,0.381000*%
%TD*%
%TA.AperFunction,Conductor*%
%ADD23C,0.250000*%
%TD*%
G04 APERTURE END LIST*
D10*
%TO.P,MX7,1,1*%
%TO.N,COL3*%
X196088000Y-67818000D03*
%TO.P,MX7,2,2*%
%TO.N,Net-(D8-PadA)*%
X189738000Y-70358000D03*
%TD*%
D11*
%TO.P,D3,A*%
%TO.N,Net-(D3-PadA)*%
X159269600Y-86741000D03*
D12*
%TO.P,D3,C*%
%TO.N,ROW1*%
X150977599Y-86740999D03*
%TD*%
D10*
%TO.P,MX2,1,1*%
%TO.N,COL0*%
X87757000Y-86868000D03*
%TO.P,MX2,2,2*%
%TO.N,Net-(D6-PadA)*%
X81407000Y-89408000D03*
%TD*%
D13*
%TO.P,SW1,1,1*%
%TO.N,GND*%
X153670000Y-54102000D03*
X160170000Y-54102000D03*
%TO.P,SW1,2,2*%
%TO.N,Net-(U1-RST)*%
X153670000Y-58602000D03*
X160170000Y-58602000D03*
%TD*%
D11*
%TO.P,D6,A*%
%TO.N,Net-(D6-PadA)*%
X116758000Y-86741000D03*
D12*
%TO.P,D6,C*%
%TO.N,ROW1*%
X125049999Y-86740999D03*
%TD*%
D11*
%TO.P,D2,A*%
%TO.N,Net-(D2-PadA)*%
X116758000Y-83820000D03*
D12*
%TO.P,D2,C*%
%TO.N,ROW1*%
X125049999Y-83819999D03*
%TD*%
D10*
%TO.P,MX6,1,1*%
%TO.N,COL2*%
X177038000Y-86868000D03*
%TO.P,MX6,2,2*%
%TO.N,Net-(D3-PadA)*%
X170688000Y-89408000D03*
%TD*%
D11*
%TO.P,D1,A*%
%TO.N,Net-(D1-PadA)*%
X116886500Y-70358000D03*
D12*
%TO.P,D1,C*%
%TO.N,ROW0*%
X125178499Y-70357999D03*
%TD*%
D11*
%TO.P,D7,A*%
%TO.N,Net-(D7-PadA)*%
X160102000Y-70358000D03*
D12*
%TO.P,D7,C*%
%TO.N,ROW0*%
X151809999Y-70357999D03*
%TD*%
D10*
%TO.P,MX4,1,1*%
%TO.N,COL1*%
X106807000Y-86868000D03*
%TO.P,MX4,2,2*%
%TO.N,Net-(D2-PadA)*%
X100457000Y-89408000D03*
%TD*%
D11*
%TO.P,D5,A*%
%TO.N,Net-(D5-PadA)*%
X116886500Y-67564000D03*
D12*
%TO.P,D5,C*%
%TO.N,ROW0*%
X125178499Y-67563999D03*
%TD*%
D11*
%TO.P,D8,A*%
%TO.N,Net-(D8-PadA)*%
X160102000Y-67564000D03*
D12*
%TO.P,D8,C*%
%TO.N,ROW0*%
X151809999Y-67563999D03*
%TD*%
D10*
%TO.P,MX5,1,1*%
%TO.N,COL2*%
X177038000Y-67818000D03*
%TO.P,MX5,2,2*%
%TO.N,Net-(D7-PadA)*%
X170688000Y-70358000D03*
%TD*%
D14*
%TO.P,U1,1,TX*%
%TO.N,unconnected-(U1-TX-Pad1)*%
X132333999Y-53720999D03*
D15*
%TO.P,U1,2,RX*%
%TO.N,unconnected-(U1-RX-Pad2)*%
X132334000Y-56261000D03*
%TO.P,U1,3,GND*%
%TO.N,GND*%
X132334000Y-58801000D03*
%TO.P,U1,4,GND*%
X132334000Y-61341000D03*
%TO.P,U1,5,2*%
%TO.N,SDA*%
X132334000Y-63881000D03*
%TO.P,U1,6,3*%
%TO.N,SCL*%
X132334000Y-66421000D03*
%TO.P,U1,7,4*%
%TO.N,COL0*%
X132334000Y-68961000D03*
%TO.P,U1,8,5*%
%TO.N,COL1*%
X132334000Y-71501000D03*
%TO.P,U1,9,6*%
%TO.N,COL2*%
X132334000Y-74041000D03*
%TO.P,U1,10,7*%
%TO.N,COL3*%
X132334000Y-76581000D03*
%TO.P,U1,11,8*%
%TO.N,ROW0*%
X132334000Y-79121000D03*
%TO.P,U1,12,9*%
%TO.N,ROW1*%
X132334000Y-81661000D03*
%TO.P,U1,13,10*%
%TO.N,unconnected-(U1-10-Pad13)*%
X147574000Y-81661000D03*
%TO.P,U1,14,16*%
%TO.N,unconnected-(U1-16-Pad14)*%
X147574000Y-79121000D03*
%TO.P,U1,15,14*%
%TO.N,unconnected-(U1-14-Pad15)*%
X147574000Y-76581000D03*
%TO.P,U1,16,15*%
%TO.N,unconnected-(U1-15-Pad16)*%
X147574000Y-74041000D03*
%TO.P,U1,17,A0*%
%TO.N,ADC0*%
X147574000Y-71501000D03*
%TO.P,U1,18,A1*%
%TO.N,unconnected-(U1-A1-Pad18)*%
X147574000Y-68961000D03*
%TO.P,U1,19,A2*%
%TO.N,unconnected-(U1-A2-Pad19)*%
X147574000Y-66421000D03*
%TO.P,U1,20,A3*%
%TO.N,unconnected-(U1-A3-Pad20)*%
X147574000Y-63881000D03*
%TO.P,U1,21,VCC*%
%TO.N,VCC*%
X147574000Y-61341000D03*
%TO.P,U1,22,RST*%
%TO.N,Net-(U1-RST)*%
X147574000Y-58801000D03*
%TO.P,U1,23,GND*%
%TO.N,GND*%
X147574000Y-56261000D03*
%TO.P,U1,24,RAW*%
%TO.N,unconnected-(U1-RAW-Pad24)*%
X147574000Y-53721000D03*
%TD*%
D10*
%TO.P,MX8,1,1*%
%TO.N,COL3*%
X196088000Y-86868000D03*
%TO.P,MX8,2,2*%
%TO.N,Net-(D4-PadA)*%
X189738000Y-89408000D03*
%TD*%
D16*
%TO.P,128x32oLed1,1,Pin_1*%
%TO.N,GND*%
X143902999Y-87337999D03*
D17*
%TO.P,128x32oLed1,2,Pin_2*%
%TO.N,VCC*%
X141362999Y-87337999D03*
%TO.P,128x32oLed1,3,Pin_3*%
%TO.N,SCL*%
X138822999Y-87337999D03*
%TO.P,128x32oLed1,4,Pin_4*%
%TO.N,SDA*%
X136282999Y-87337999D03*
%TD*%
D10*
%TO.P,MX1,1,1*%
%TO.N,COL0*%
X87757000Y-67818000D03*
%TO.P,MX1,2,2*%
%TO.N,Net-(D5-PadA)*%
X81407000Y-70358000D03*
%TD*%
%TO.P,MX3,1,1*%
%TO.N,COL1*%
X106807000Y-67818000D03*
%TO.P,MX3,2,2*%
%TO.N,Net-(D1-PadA)*%
X100457000Y-70358000D03*
%TD*%
D18*
%TO.P,R1,1*%
%TO.N,VCC*%
X123503499Y-94515999D03*
D19*
%TO.P,R1,2*%
%TO.N,ADC0*%
X123503500Y-98016000D03*
%TO.P,R1,3*%
%TO.N,GND*%
X157003500Y-94516000D03*
D20*
%TO.P,R1,S1*%
%TO.N,N/C*%
X128853500Y-92016000D03*
%TO.P,R1,S2*%
X127653500Y-100516000D03*
%TO.P,R1,S3*%
X151653500Y-92016000D03*
%TO.P,R1,S4*%
X152853500Y-100516000D03*
%TD*%
D11*
%TO.P,D4,A*%
%TO.N,Net-(D4-PadA)*%
X159289200Y-83820000D03*
D12*
%TO.P,D4,C*%
%TO.N,ROW1*%
X150997199Y-83819999D03*
%TD*%
D21*
%TO.N,GND*%
X143637000Y-70866000D03*
%TO.N,VCC*%
X142621000Y-62484000D03*
X145669000Y-61976000D03*
%TO.N,ROW0*%
X128270000Y-76200000D03*
%TO.N,COL1*%
X117094000Y-73279000D03*
X127635000Y-71628000D03*
%TO.N,COL2*%
X151015670Y-72145188D03*
%TO.N,COL3*%
X151231600Y-76454000D03*
%TD*%
D22*
%TO.N,GND*%
X149733000Y-54102000D02*
X147574000Y-56261000D01*
X143637000Y-70866000D02*
X143903000Y-71132000D01*
X143903000Y-71132000D02*
X143903000Y-87338000D01*
X147574000Y-56261000D02*
X145034000Y-58801000D01*
X153670000Y-54102000D02*
X160170000Y-54102000D01*
X132334000Y-61341000D02*
X132334000Y-58801000D01*
X145034000Y-58801000D02*
X132334000Y-58801000D01*
X153670000Y-54102000D02*
X149733000Y-54102000D01*
%TO.N,VCC*%
X132941000Y-94516000D02*
X137287000Y-90170000D01*
X141732000Y-83439000D02*
X141732000Y-63373000D01*
X141732000Y-63373000D02*
X142621000Y-62484000D01*
X145669000Y-61976000D02*
X146939000Y-61976000D01*
X141363000Y-87338000D02*
X141363000Y-83808000D01*
X146939000Y-61976000D02*
X147574000Y-61341000D01*
X138531000Y-90170000D02*
X141363000Y-87338000D01*
X141363000Y-83808000D02*
X141732000Y-83439000D01*
X137287000Y-90170000D02*
X138531000Y-90170000D01*
X123503500Y-94516000D02*
X132941000Y-94516000D01*
D23*
%TO.N,SCL*%
X139192000Y-83439000D02*
X139192000Y-73279000D01*
X138823000Y-87338000D02*
X138823000Y-83808000D01*
X138823000Y-83808000D02*
X139192000Y-83439000D01*
X139192000Y-73279000D02*
X132334000Y-66421000D01*
%TO.N,SDA*%
X136283000Y-83808000D02*
X136652000Y-83439000D01*
X136652000Y-71442705D02*
X132831595Y-67622300D01*
X131132700Y-65082300D02*
X132334000Y-63881000D01*
X131132700Y-66918595D02*
X131132700Y-65082300D01*
X136652000Y-83439000D02*
X136652000Y-71442705D01*
X131836405Y-67622300D02*
X131132700Y-66918595D01*
X132831595Y-67622300D02*
X131836405Y-67622300D01*
X136283000Y-87338000D02*
X136283000Y-83808000D01*
%TO.N,ROW1*%
X130175000Y-83820000D02*
X132334000Y-81661000D01*
X125050000Y-83820000D02*
X130175000Y-83820000D01*
X125050000Y-86741000D02*
X125050000Y-83820000D01*
X150977600Y-83839600D02*
X150997200Y-83820000D01*
X150977600Y-86741000D02*
X150977600Y-83839600D01*
%TO.N,Net-(D1-PadA)*%
X104422000Y-66393000D02*
X112921500Y-66393000D01*
X100457000Y-70358000D02*
X104422000Y-66393000D01*
X112921500Y-66393000D02*
X116886500Y-70358000D01*
X117013500Y-70358000D02*
X117094000Y-70358000D01*
X117094000Y-70358000D02*
X117221000Y-70485000D01*
%TO.N,Net-(D2-PadA)*%
X116758000Y-83820000D02*
X111043000Y-89535000D01*
X100584000Y-89535000D02*
X100457000Y-89408000D01*
X111043000Y-89535000D02*
X100584000Y-89535000D01*
%TO.N,Net-(D3-PadA)*%
X161936600Y-89408000D02*
X159269600Y-86741000D01*
X170688000Y-89408000D02*
X161936600Y-89408000D01*
%TO.N,Net-(D4-PadA)*%
X189738000Y-89408000D02*
X172703255Y-89408000D01*
X167115255Y-83820000D02*
X159289200Y-83820000D01*
X172703255Y-89408000D02*
X167115255Y-83820000D01*
%TO.N,ROW0*%
X151810000Y-70358000D02*
X151810000Y-67564000D01*
X129413000Y-76200000D02*
X132334000Y-79121000D01*
X128270000Y-76200000D02*
X129413000Y-76200000D01*
X125178500Y-71965500D02*
X128270000Y-75057000D01*
X125178500Y-70358000D02*
X125178500Y-71965500D01*
X125178500Y-67564000D02*
X125178500Y-70358000D01*
X128270000Y-75057000D02*
X128270000Y-76200000D01*
%TO.N,Net-(D5-PadA)*%
X115265500Y-65943000D02*
X116886500Y-67564000D01*
X81534000Y-69970000D02*
X81280000Y-69716000D01*
X81407000Y-70358000D02*
X85822000Y-65943000D01*
X85822000Y-65943000D02*
X115265500Y-65943000D01*
%TO.N,Net-(D6-PadA)*%
X81407000Y-91496757D02*
X93694643Y-103784400D01*
X114147600Y-103784400D02*
X93726000Y-103784400D01*
X116758000Y-86741000D02*
X116758000Y-101174000D01*
X93694643Y-103784400D02*
X93726000Y-103784400D01*
X116758000Y-101174000D02*
X114147600Y-103784400D01*
X81407000Y-89408000D02*
X81407000Y-91496757D01*
%TO.N,Net-(D7-PadA)*%
X170688000Y-70358000D02*
X160102000Y-70358000D01*
%TO.N,Net-(D8-PadA)*%
X186535000Y-65878000D02*
X161788000Y-65878000D01*
X161788000Y-65878000D02*
X160102000Y-67564000D01*
X190500000Y-69843000D02*
X186535000Y-65878000D01*
%TO.N,COL0*%
X125730000Y-62357000D02*
X132334000Y-68961000D01*
X82137366Y-71882000D02*
X80853412Y-71882000D01*
X79982000Y-69751000D02*
X87376000Y-62357000D01*
X80853412Y-71882000D02*
X79982000Y-71010588D01*
X87757000Y-67818000D02*
X86201366Y-67818000D01*
X87757000Y-86868000D02*
X87757000Y-67818000D01*
X86201366Y-67818000D02*
X82137366Y-71882000D01*
X87376000Y-62357000D02*
X125730000Y-62357000D01*
X79982000Y-71010588D02*
X79982000Y-69751000D01*
X88145000Y-67691000D02*
X87630000Y-67176000D01*
%TO.N,COL1*%
X127762000Y-71501000D02*
X132334000Y-71501000D01*
X111633000Y-67818000D02*
X117094000Y-73279000D01*
X106807000Y-86868000D02*
X106807000Y-67818000D01*
X127635000Y-71628000D02*
X127762000Y-71501000D01*
X106807000Y-86868000D02*
X107442000Y-87503000D01*
X106807000Y-67818000D02*
X111633000Y-67818000D01*
%TO.N,COL2*%
X156210000Y-76708000D02*
X170434000Y-76708000D01*
X175482366Y-67818000D02*
X177038000Y-67818000D01*
X171577000Y-71723366D02*
X175482366Y-67818000D01*
X170434000Y-76708000D02*
X171577000Y-75565000D01*
X151024858Y-72136000D02*
X151015670Y-72145188D01*
X151841200Y-72339200D02*
X151638000Y-72136000D01*
X151841200Y-72339200D02*
X156210000Y-76708000D01*
X151180800Y-72136000D02*
X151024858Y-72136000D01*
X151841200Y-72339200D02*
X151739600Y-72237600D01*
X151638000Y-72136000D02*
X151180800Y-72136000D01*
X177038000Y-67818000D02*
X177038000Y-86868000D01*
X171577000Y-75565000D02*
X171577000Y-71723366D01*
%TO.N,COL3*%
X154990800Y-76454000D02*
X156768800Y-78232000D01*
X191008000Y-71589366D02*
X194779366Y-67818000D01*
X151231600Y-76454000D02*
X154990800Y-76454000D01*
X175592800Y-88928000D02*
X178991200Y-88928000D01*
X164896800Y-78232000D02*
X175592800Y-88928000D01*
X191008000Y-76911200D02*
X191008000Y-71589366D01*
X194779366Y-67818000D02*
X196088000Y-67818000D01*
X156768800Y-78232000D02*
X164896800Y-78232000D01*
X178991200Y-88928000D02*
X191008000Y-76911200D01*
X195294366Y-67303000D02*
X196850000Y-67303000D01*
X196088000Y-67818000D02*
X196088000Y-86868000D01*
%TO.N,ADC0*%
X123503500Y-98016000D02*
X136934000Y-98016000D01*
X146372700Y-72702300D02*
X147574000Y-71501000D01*
X146372700Y-88577300D02*
X146372700Y-72702300D01*
X136934000Y-98016000D02*
X146372700Y-88577300D01*
%TO.N,Net-(U1-RST)*%
X147773000Y-58602000D02*
X147574000Y-58801000D01*
X153670000Y-58602000D02*
X147773000Y-58602000D01*
X160170000Y-58602000D02*
X153670000Y-58602000D01*
%TD*%
M02*
