M48
; DRILL file {KiCad (7.0.0)} date Mon Jul 31 10:46:56 2023
; FORMAT={-:-/ absolute / inch / decimal}
; #@! TF.CreationDate,2023-07-31T10:46:56-07:00
; #@! TF.GenerationSoftware,Kicad,Pcbnew,(7.0.0)
; #@! TF.FileFunction,NonPlated,1,2,NPTH
FMAT,2
INCH
; #@! TA.AperFunction,NonPlated,NPTH,ComponentDrill
T1C0.0669
; #@! TA.AperFunction,NonPlated,NPTH,ComponentDrill
T2C0.1575
%
G90
G05
T1
X3.155Y-2.87
X3.155Y-3.62
X3.555Y-2.87
X3.555Y-3.62
X3.905Y-2.87
X3.905Y-3.62
X4.305Y-2.87
X4.305Y-3.62
X6.67Y-2.87
X6.67Y-3.62
X7.07Y-2.87
X7.07Y-3.62
X7.42Y-2.87
X7.42Y-3.62
X7.82Y-2.87
X7.82Y-3.62
T2
X3.355Y-2.87
X3.355Y-3.62
X4.105Y-2.87
X4.105Y-3.62
X6.87Y-2.87
X6.87Y-3.62
X7.62Y-2.87
X7.62Y-3.62
T0
M30
