M48
; DRILL file {KiCad (7.0.0)} date Sun Jul 30 13:50:22 2023
; FORMAT={-:-/ absolute / inch / decimal}
; #@! TF.CreationDate,2023-07-30T13:50:22-07:00
; #@! TF.GenerationSoftware,Kicad,Pcbnew,(7.0.0)
; #@! TF.FileFunction,Plated,1,2,PTH
FMAT,2
INCH
; #@! TA.AperFunction,Plated,PTH,ViaDrill
T1C0.0157
; #@! TA.AperFunction,Plated,PTH,ComponentDrill
T2C0.0287
; #@! TA.AperFunction,Plated,PTH,ComponentDrill
T3C0.0394
; #@! TA.AperFunction,Plated,PTH,ComponentDrill
T4C0.0430
; #@! TA.AperFunction,Plated,PTH,ComponentDrill
T5C0.0433
; #@! TA.AperFunction,Plated,PTH,ComponentDrill
T6C0.0472
; #@! TA.AperFunction,Plated,PTH,ComponentDrill
T7C0.0591
; #@! TA.AperFunction,Plated,PTH,ComponentDrill
T8C0.0669
%
G90
G05
T1
X4.61Y-2.885
X5.025Y-2.82
X5.05Y-3.0
X5.615Y-2.46
X5.655Y-2.79
X5.735Y-2.44
X5.9455Y-2.8404
X5.954Y-3.01
T2
X4.5968Y-3.3
X4.5968Y-3.415
X4.6018Y-2.66
X4.6018Y-2.77
X4.9232Y-3.3
X4.9232Y-3.415
X4.9283Y-2.66
X4.9283Y-2.77
X5.944Y-3.415
X5.9448Y-3.3
X5.9768Y-2.66
X5.9768Y-2.77
X6.2705Y-3.415
X6.2712Y-3.3
X6.3032Y-2.66
X6.3032Y-2.77
T3
X5.3655Y-3.4385
X5.4655Y-3.4385
X5.5655Y-3.4385
X5.6655Y-3.4385
T4
X5.21Y-2.115
X5.21Y-2.215
X5.21Y-2.315
X5.21Y-2.415
X5.21Y-2.515
X5.21Y-2.615
X5.21Y-2.715
X5.21Y-2.815
X5.21Y-2.915
X5.21Y-3.015
X5.21Y-3.115
X5.21Y-3.215
X5.81Y-2.115
X5.81Y-2.215
X5.81Y-2.315
X5.81Y-2.415
X5.81Y-2.515
X5.81Y-2.615
X5.81Y-2.715
X5.81Y-2.815
X5.81Y-2.915
X5.81Y-3.015
X5.81Y-3.115
X5.81Y-3.215
T5
X6.05Y-2.13
X6.05Y-2.3072
X6.3059Y-2.13
X6.3059Y-2.3072
T6
X4.8623Y-3.7211
X4.8623Y-3.8589
X6.1812Y-3.7211
T7
X3.205Y-2.77
X3.205Y-3.52
X3.455Y-2.67
X3.455Y-3.42
X3.955Y-2.77
X3.955Y-3.52
X4.205Y-2.67
X4.205Y-3.42
X6.72Y-2.77
X6.72Y-3.52
X6.97Y-2.67
X6.97Y-3.42
X7.47Y-2.77
X7.47Y-3.52
X7.72Y-2.67
X7.72Y-3.42
T8
X5.0257Y-3.9573
X5.073Y-3.6227
X5.9706Y-3.6227
X6.0179Y-3.9573
T0
M30
